<svg xmlns="http://www.w3.org/2000/svg"  id="svg2" xml:space="preserve" viewBox="0 0 277.6 137.05" version="1.1" >
  <g id="g10" transform="matrix(1.25 0 0 -1.25 0 137.05)">
    <g id="g12">
      <path id="path14" style="fill-rule:evenodd;fill:#b3aa9e" d="m180.12 57.081v1.199c3.57 0.558 7.277 0.906 11.117 1.039 2.133 0.215 3.348 1.121 3.641 2.719 1.332-0.211 3.242-0.84 5.719-1.879 3.121-1.305 4.961-2.559 5.523-3.758-0.883 1.359-3.297 2.16-7.242 2.398-3.813-0.054-5.785-0.082-5.918-0.082-2.348 0-4.121-0.304-5.32-0.918-1.203-0.586-1.922-0.879-2.161-0.879l-5.359 0.161zm14.88-37.922c-0.078-0.055-0.387-0.082-0.922-0.082l1.12 0.203-0.2-0.121zm2.68 0.718-0.039 0.083v0.242l0.16 0.758v0.039l0.121 0.242-0.121-0.281-0.121-1.083zm-43.8-12.039c0.109-0.05 1.976-0.867 5.601-2.437-2 0.586-3.867 1.398-5.601 2.437zm-8.238 6.922 0.48-0.402 0.441-0.441-0.921 0.843zm-133.4-6.043 1.282-0.437l1-0.403-3.079 1.122c0.239-0.079 0.504-0.172 0.797-0.282zm-10.277 12.243 2.519 1.48c3.2-1.789 9.735-3.48 19.598-5.082 0.535 0 0.922 0.027 1.16 0.082-0.316 3.172-0.144 5.32 0.524 6.437 0.531 0.883 1.504 1.321 2.918 1.321 0.48 0 3.16-0.492 8.039-1.481 3.656 0 5.48 2.348 5.48 7.043 0 2.184-0.746 4.227-2.238 6.117-1.359 1.708-2.629 2.563-3.801 2.563 1.602 0.051 3.387 0.09 5.36 0.117-0.641-0.027-1.387-0.183-2.239-0.48 1.891-2.453 3.52-4.719 4.879-6.801 1.867-2.797 2.801-4.598 2.801-5.399-0.535-1.414-1.266-2.812-2.199-4.199-1.867-2.718-3.801-4.082-5.801-4.082-0.508 0-1.402 0.348-2.68 1.043-1.281 0.719-2 1.078-2.16 1.078-0.082 0-1.242-0.746-3.48-2.238-2.348-1.547-4.602-2.43-6.762-2.641 0.32 0.239 0.641 0.547 0.961 0.918l-0.719 0.121c-0.348-0.105-0.961-0.359-1.84-0.761-0.48-0.211-1.187-0.317-2.121-0.317-2.187 0-4.359 0.118-6.519 0.36-0.321 0.133-2.375 1.011-6.161 2.64-0.535 0.239-1.027 0.438-1.48 0.598l-0.281 0.281c0-0.054 0.027-0.121 0.082-0.199-2.133 0.906-3.414 1.398-3.84 1.481zm29.559 18.238c0.878 0.082 1.906 0.133 3.082 0.16-0.43-0.027-0.907-0.051-1.442-0.078-0.613-0.028-1.16-0.055-1.64-0.082zm26.878-6.16c1.309 0.613 2.016 1 2.122 1.16l0.921 0.242c-0.187-0.426-0.375-0.734-0.562-0.922-0.293-0.344-0.918-0.519-1.879-0.519l-0.602 0.039zm-3.679 0.242c-0.746-0.906-1.117-1.602-1.117-2.082 0-0.692 0.171-1.531 0.519-2.52 0.399-1.144 0.664-2.293 0.801-3.437-0.695 0.558-1.535 1.597-2.524 3.117-1.332 2.055-2.011 3.855-2.039 5.402l4.36-0.48zm3.922 15.84c0.398-0.16 1.332-0.469 2.8-0.918 1.625-0.485 2.813-0.817 3.559-1-0.508-0.43-0.988-1.121-1.441-2.082-0.454-1.016-0.774-1.668-0.957-1.961-0.082-0.078-0.895-0.985-2.442-2.719-0.906-1.012-1.906-1.773-3-2.281-0.773 0.027-1.785 0.121-3.039 0.281-1.414 0.16-2.215 0.254-2.402 0.281-2.133 0.184-4.078 0.574-5.84 1.16-1.332 0.532-2.067 0.797-2.199 0.797l-2.039-0.16c0.105 0.375 0.664 1.309 1.679 2.801 0.985 1.414 1.602 2.242 1.84 2.48l0.52-0.32c-0.559-0.746-0.84-1.16-0.84-1.238 0-0.321 0.039-0.535 0.121-0.641 0.051-0.105 0.078-0.172 0.078-0.199 0.348-0.055 1.215-0.227 2.602-0.52 1.464-0.242 2.851-0.359 4.16-0.359 2.187 0 3.277 1.211 3.277 3.641 0 0.879-0.371 1.519-1.117 1.918-0.668 0.347-2.016 0.652-4.039 0.921 0.797 0.532 1.691 1.344 2.68 2.438 0.613-0.32 1.253-0.613 1.918-0.879-0.586 0.453-0.973 0.758-1.161 0.918-0.293 0.215-0.933 0.613-1.918 1.199-0.109 0.137-0.203 0.535-0.281 1.203 0.399-0.293 0.852-0.668 1.36-1.121 0.828-0.613 2.32-1.586 4.48-2.918l-2.48 0.719c0.265-0.16 0.878-0.426 1.839-0.801 1.121-0.429 1.879-0.64 2.282-0.64zm-5.481 4.84c-0.133 0.05-0.465 0.441-1 1.16-0.535 0.718-0.855 1.144-0.961 1.281 0.16 0.851 0.36 1.703 0.602 2.559l-0.121-1.282c0-0.265 0.175-0.84 0.519-1.718 0.348-0.856 0.668-1.52 0.961-2zm8.719 15.917-4.559-3.316c0.215 0.293 0.895 0.84 2.039 1.637 0.961 0.695 1.801 1.254 2.52 1.679zm23.84 10.641c0.75 0 1.386 0.32 1.922 0.961 0.425 0.586 0.679 1.266 0.757 2.039 0.321-0.613 0.747-1.039 1.282-1.277 0.453-0.188 1.121-0.281 2-0.281 1.812 0 4.039-0.536 6.679-1.602 2.641-1.039 4.36-1.559 5.161-1.559 1.785 0 3.906 0.453 6.359 1.36 2.187 0.801 3.562 1.519 4.121 2.16 0-0.559 0.172-1.039 0.52-1.442 0.32-0.398 0.707-0.597 1.16-0.597l2.242-0.039h-0.602l-0.199-1.281-1.441 1.32 0.043-1.199c-0.27-0.137-0.657-0.868-1.161-2.204-0.484-1.277-1.32-2.144-2.523-2.597-0.504-0.055-1.559-0.227-3.16-0.52-1.813-0.347-2.785-0.535-2.918-0.562-2.641 0.054-4.414 0.176-5.32 0.363-0.829 0.184-1.321 0.277-1.481 0.277l-1.437-0.039c-0.828 0.426-1.59 0.879-2.282 1.36-1.148 0.773-2.187 1.453-3.121 2.039l-0.918 0.64 0.118-0.121c-3.442 1.735-5.375 2.668-5.801 2.801zm41.64-5.238c-1.597 0.586-3.226 1.437-4.879 2.558-1.468 1.016-2.359 1.789-2.679 2.321l0.519 0.64c0.078-0.082 0.52-0.464 1.317-1.16 1.015-0.828 2.175-1.558 3.484-2.199 4.16-2 9.359-3 15.598-3 1.816 0 3.176 0.199 4.082 0.598 1.172 0.507 1.758 1.363 1.758 2.562 0 0.664-0.465 1.68-1.399 3.039-0.961 1.332-1.441 2.305-1.441 2.922l1.043 1.316c1.515-0.343 2.812-0.531 3.879-0.558 0.984-0.16 3-0.973 6.039-2.442 0.508-1.011 1.015-1.757 1.519-2.238 0.293-0.265 0.52-0.398 0.68-0.398 0.32 0 0.48 0.039 0.48 0.117 0 0.027-0.011 0.066-0.039 0.121l0.082 0.961 1.078-0.563c-0.214 0.43-0.585 0.977-1.117 1.641 0 0.563-0.32 1.563-0.961 3-0.668 1.469-1.214 2.375-1.64 2.723-0.535 0.398-2 0.797-4.399 1.199-2.453 0.426-3.855 0.746-4.203 0.961l0.68 0.16c1.094 0.133 2.828 0.238 5.203 0.316 1.73 0.083 3.012 0.122 3.84 0.122 3.359 0 5.359-0.293 6-0.879 0.957-0.879 2.414-1.493 4.359-1.84l0.32-1c-0.562-1.067-2.855-2.52-6.882-4.36 1.867 0.454 4.027 0.731 6.48 0.84 1.309 0.051 3.055 0.094 5.242 0.117 3.2 0.243 4.801 1.774 4.801 4.602l-0.121 2.719 1.32-2.598c0-1.519-0.492-2.906-1.48-4.16-0.668-0.855-1.387-1.336-2.16-1.441l1.117-0.282c-1.918 0.321-3.637 0.254-5.156-0.199-0.911-0.293-4.789-1.824-11.641-4.598-0.773 0-1.426 0.161-1.961 0.481-0.531 0.316-0.801 0.703-0.801 1.16-0.101 1.652-1.48 3.078-4.117 4.277-2.508 1.149-4.613 1.497-6.32 1.039 3.492-0.851 5.664-1.57 6.519-2.16 0.453-0.316 0.985-0.73 1.598-1.238-0.531 0.106-1.105 0.172-1.719 0.199 0.696-0.183 1.266-0.679 1.719-1.48 0.027-0.692 0.176-1.266 0.441-1.719 0.239-0.453 0.52-0.652 0.84-0.602 0.082 0.028 0.16 0.067 0.242 0.122 0.454-0.481 0.891-0.774 1.317-0.879-1.598-0.535-3-0.922-4.199-1.16-1.012-0.188-2.625-0.399-4.84-0.641l2.879 1.16c-5.067-1.066-7.864-1.602-8.399-1.602-4.105 0-7.187 0.215-9.238 0.641-2.402 0.481-3.949 0.734-4.641 0.762h-0.043zm22.321 5.437c-0.242 0-0.485-0.011-0.719-0.039h0.559c0.05 0.028 0.105 0.039 0.16 0.039zm-56 15.563c4.64-3.469 7.851-5.785 9.64-6.961 0.055-0.027 0.133-0.067 0.239-0.121-1.731 0.429-2.625 0.652-2.68 0.679-0.934 0.883-1.664 1.524-2.199 1.922-0.934 0.719-2.68 0.973-5.239 0.762 0.133 0.266 0.227 0.863 0.278 1.797 0.054 0.906 0.043 1.547-0.039 1.922zm29.441 1.199c0-0.559-0.269-1.039-0.801-1.441-0.558-0.371-1.226-0.559-2-0.559-0.961 0.027-3.226 0.52-6.8 1.481-3.735 0.984-5.961 1.746-6.68 2.281-0.32 0.238-2.016 1.199-5.082 2.879-1.68 0.906-3 1.664-3.957 2.281 1.679-1.016 3.57-1.563 5.679-1.641 2.797-0.133 4.438-0.386 4.918-0.761 0.641-0.504 1.989-1.079 4.04-1.719 2.296-0.719 4.281-1.121 5.96-1.199l-0.277 0.32c-0.695 0.504-1.336 1-1.922 1.476-1.094 0.934-1.801 1.79-2.121 2.563 2.586-0.32 4.988-0.801 7.199-1.441 1.684-0.481 3.254-0.719 4.723-0.719 1.918 0 2.879 0.625 2.879 1.879 0 0.293-0.16 0.879-0.481 1.761-0.32 0.852-0.492 1.321-0.519 1.399 1.094-0.188 2.84-0.906 5.242-2.16 1.891-1.012 3.211-1.824 3.957-2.442-0.156 0.11-0.316 0.176-0.48 0.203l-0.52-0.043c-0.453-2.16-2.117-3.476-5-3.957-1.012-0.187-1.984-0.226-2.918-0.121-0.848 0.106-1.273 0.266-1.281 0.481-0.691 0.027-2.199 0.547-4.52 1.558-2.347 1.067-4.507 1.602-6.48 1.602l1-0.402c0.773-0.184 1.734-0.543 2.883-1.078 1.144-0.536 1.945-0.989 2.398-1.36l-1.281-0.32c0.719-0.133 1.469-0.403 2.242-0.801zm12.238-8.16c1.973 1.148 3.243 1.922 3.801 2.32 0.133 0.055 0.774 0.465 1.918 1.238 1.149 0.801 1.789 1.27 1.922 1.403l0.879-0.039c-0.133-0.481-0.481-0.977-1.039-1.481-0.535-0.535-1.082-0.883-1.641-1.043l0.078 0.16-5.918-2.558zm59.52-27.281c-0.238 0.054-0.559 0.082-0.957 0.082l-0.563-0.039c0.293 0.027 0.453 0.117 0.481 0.277l-1.36 0.519 2.399-0.839zm-0.801-41.477c-9.039-1.176-15.57-2.375-19.598-3.601l0.321-0.2c0.398-0.133 0.918-0.199 1.558-0.199 0.641 0 1.254 0.039 1.84 0.117-3.547-0.773-6.547-1.172-9-1.199-3.304-0.027-5.105-0.055-5.398-0.082-0.961 0.215-2.414 0.855-4.36 1.922-1.867 1.066-3.066 1.879-3.601 2.441 1.281 0.239 2.332 0.598 3.16 1.078 0.535 0.293 1.426 0.879 2.68 1.762h-0.2c-4.691 0.106-7.839 0.531-9.441 1.277-1.117 1.653-1.945 2.801-2.48 3.442-0.481 0.558-0.907 0.945-1.282 1.16-0.425 0.32-1.117 0.641-2.078 0.961-1.066 0.32-1.679 0.531-1.84 0.637l-0.961 3.601c0.293 0.508 0.856 1.149 1.68 1.922 0.43 0.371 0.883 0.774 1.36 1.199l1.363-0.199c-0.028-0.027-0.149-0.109-0.363-0.242-0.079-0.055-0.118-0.242-0.118-0.559 0-0.613 0.426-1.015 1.282-1.199 1.707-0.402 2.679-0.656 2.918-0.762 0.718-0.32 1.132-0.546 1.242-0.679 0.371-0.614 1-1.36 1.879-2.242 0.347-0.344 1.414-0.692 3.199-1.04 1.519-0.265 2.441-0.878 2.762-1.839l-0.122-0.641c-2.187 0.402-4.054 0.148-5.601-0.758-1.039-0.613-1.785-1.375-2.238-2.281 1.359-0.242 3.851-0.629 7.48-1.16 1.199-0.188 2.957-0.625 5.281-1.321-0.32-0.507-1.109-1-2.363-1.48-1.012-0.398-1.719-0.598-2.117-0.598l0.359-0.363c0.852-0.211 1.852-0.625 3-1.238 1.309-0.535 3.067-0.801 5.281-0.801 0.532 0 0.973 0.027 1.317 0.082l0.043 1.16c-0.426 3.199-0.613 5.731-0.559 7.598 0.133 3.414 1.465 5.121 4 5.121 0.746 0 1.383-0.133 1.918-0.398 0.692-0.375 1.039-0.977 1.039-1.801 0-0.801-0.281-1.453-0.84-1.961-0.8-0.696-1.441-1.668-1.918-2.922 0.028-0.586 0.626-0.879 1.801-0.879 4.825 0 7.492 0.027 8 0.082 2.879 0.398 4.504 1.598 4.879 3.598 2.051-2.477 3.664-4.653 4.836-6.516zm-32.719 29.277c0.481 0.266 1.786 1.082 3.918 2.442-1.172-1.016-2.172-1.719-3-2.121l-0.918-0.321zm32.121-8.039c0.106-1.359 0.122-2.425 0.04-3.199-1.973 0.801-3.692 1.453-5.161 1.961-2.773 0.957-5.492 1.438-8.16 1.438-1.09 0.668-2.906 1.242-5.437 1.718-2.16 0.43-3.907 0.641-5.242 0.641l-4.239-0.078c0 0.508-0.093 0.84-0.281 1l-0.32 0.121 0.601 2.078-2.043-0.559c0.055 0.239 0.242 0.825 0.563 1.758 0.453 1.254 0.918 2.414 1.398 3.481l1.403 0.121c0-0.508 0.078-0.934 0.238-1.281 0.133-0.348 0.293-0.52 0.48-0.52l-1.199-0.602c1.625-0.796 4.508-2.238 8.641-4.316 3.625-1.684 6.211-2.519 7.758-2.519 1.121 0 2.066 0.277 2.839 0.839 1.067 0.746 3.614 1.414 7.641 2l0.48-4.082zm-2.8 19.918-15.918-2.117c0.664 1.094 1.172 1.746 1.519 1.961 1.012 0 3.852 0.051 8.52 0.156 2.558 0.055 4.519 0.055 5.879 0zm-62.239 9.243c0.614-0.215 1.145-0.36 1.598-0.442 1.066-0.398 2.254-0.785 3.563-1.16-1.336 0.269-2.016 0.402-2.043 0.402-0.133 0.051-1.172 0.453-3.118 1.2zm10.118-9.879-1.239-0.204c-0.64 0.137-1.265 0.188-1.882 0.161-1.145 0-1.985-0.332-2.516-1-1.094-0.184-2.176-0.387-3.242-0.598-0.535 0.055-1.082 0.078-1.641 0.078-0.133 0-0.348-0.183-0.641-0.558h-0.019c-3.008-0.645-5.945-1.403-8.82-2.282l4.043 0.16-0.563-0.398c0.773-0.242 1.563-0.359 2.359-0.359 1.282 0 3.309 0.105 6.082 0.32-1.972-1.895-3.601-3.84-4.878-5.84-1.094-1.976-1.883-3.297-2.364-3.961-0.746-1.094-1.73-1.84-2.957-2.242-1.414-0.481-3.668-0.719-6.761-0.719-2.508 0-4.532 0.281-6.079 0.84-1.308 0.668-2.203 1.106-2.679 1.32l-1.364 0.559 0.161-0.16-1.957 0.562h0.078c0.187 0.184 0.414 0.371 0.679 0.559 0.161 0.16 0.243 0.32 0.243 0.48 0 0.907-1.457 1.614-4.364 2.118-3.117 0.402-4.933 0.644-5.437 0.722 2.344 1.625 5.211 2.852 8.597 3.68 1.043 0.266 1.735 0.558 2.082 0.879 0.481 0.429 0.719 1.176 0.719 2.242-0.664 6.133-1.094 9.465-1.277 10l-0.043 1.238-0.559-0.16-0.601 0.762v0.64c1.469 0.051 2.386 0.118 2.761 0.2 0-0.989-0.066-2.481-0.199-4.481 0-1.199 0.199-1.972 0.598-2.32 0.641-0.586 2.133-0.879 4.48-0.879 1.2 0 4.442 0.52 9.719 1.559 2 0 3.508-0.172 4.52-0.52 0.988-0.32 1.816-0.48 2.48-0.48 2.348 0 4.801 0.519 7.36 1.562 2.773 1.117 4.363 2.371 4.761 3.758l-1.519 0.519c1.308 0 2.172 0.067 2.597 0.2 0.27-0.184 1.696-1.465 4.282-3.84l-0.758-0.719-0.641 0.559c-0.027-0.504-0.094-0.985-0.199-1.438-1.867-1.496-3-2.336-3.402-2.519zm-12.36-24.84-0.32 0.597 0.441-0.679-0.121 0.082zm-11.558 4.039 2.8-1.039-0.32 0.039-2.48 1zm11.52-16.121c-3.949-0.426-6.574-1.442-7.883-3.039-0.691-0.828-1-1.922-0.918-3.282 1.254-0.078 3.493 0.321 6.719 1.2-0.48-0.692-0.867-1.547-1.156-2.559-0.242-0.801-0.551-1.332-0.922-1.602-0.934-0.691-4.602-1.039-11-1.039-1.734 0-3.094 0.653-4.078 1.961-0.856 1.145-1.363 2.664-1.524 4.559l0.403 0.359c0.344 0.266 0.679 0.399 1 0.399 0.054 0 1.094-0.426 3.121-1.278 2.078-0.828 3.25-1.242 3.519-1.242 2.747 0 4.012 1.977 3.797 5.922-0.078 1.758 0.735 3.387 2.442 4.879 1.761 1.547 2.64 2.867 2.64 3.961 0 0.746-0.281 1.602-0.84 2.559-0.375 0.668-0.828 1.242-1.359 1.718 0.453-0.32 0.984-0.679 1.602-1.078 2.238-1.469 3.57-2.426 4-2.883 0.156-0.824 0.265-1.636 0.316-2.437l-0.437-0.559c-0.508 0-0.95-0.148-1.321-0.441-0.375-0.266-0.558-0.598-0.558-1-0.563-1.012-0.844-2.664-0.844-4.961l3.281-0.117zm24.961 13.84c0.238 0.214 0.813 0.468 1.719 0.761 1.039 0.317 1.933 0.492 2.68 0.52l-4.399-1.281zm29 18.199 2.117-0.68-2.078 0.121-0.039 0.559zm5.438-1.16c2.132 0 3.949-0.426 5.441-1.278 1.492-0.828 2.238-1.843 2.238-3.043-0.238 0.723-1.226 1.563-2.957 2.52-1.707 0.961-3.281 1.562-4.722 1.801zm-17.598-40.68c-0.641 0.082-1.641 0.309-3 0.68 1.094-0.051 3.078-0.039 5.961 0.043l-2.961-0.723zm-37.481 5.16c-0.132 0-0.785 0.215-1.96 0.641-1.2 0.402-1.879 0.613-2.04 0.64 0.082 0.188 0.243 0.746 0.481 1.68s0.359 1.496 0.359 1.684c0.961 0 1.785-0.43 2.481-1.282 0.668-0.855 1-1.882 1-3.082l-0.321-0.281zm-3.601 78.762c0-0.399-0.094-0.508-0.277-0.32-0.188 0.214-0.094 0.32 0.277 0.32zm-20.957-9.641c1.09-0.187 2.519-0.398 4.277-0.64 3.309-0.426 5.254-1.465 5.84-3.122l-1.437-0.039c-0.641 1.336-2.801 2.426-6.481 3.282-0.801 0.187-1.535 0.359-2.199 0.519zm-5.442-11.238 0.04-0.32c0.054-0.161 0.214-0.43 0.48-0.801 1.066-0.106 1.707-0.16 1.922-0.16 1.172 0 2.223 0.32 3.156 0.961l4.801 2c-0.211-0.082-1.813-0.348-4.801-0.801-3.144-0.453-5.012-0.746-5.598-0.879zm-0.359-7.082c-0.08-1.039-0.518-2.055-1.319-3.039-1.254-1.52-1.973-2.453-2.16-2.801-0.668-1.199-1.508-2.559-2.52-4.078-1.066-1.602-1.789-2.535-2.16-2.801-0.508-0.402-1.723-0.734-3.641-1-2.32-0.348-3.746-0.601-4.281-0.762-3.332-1.093-6.707-2.464-10.117-4.121-2.242-1.066-3.883-1.586-4.922-1.558 1.254 0.828 3.922 2.043 8 3.64 0.238 0.082 3.508 1.309 9.801 3.68l-4.602 0.121c-3.011 0-5.574-0.508-7.679-1.519-2.106-0.989-4.961-1.481-8.559-1.481-1.867 0-3.227 0.199-4.082 0.602-1.547 0.718-2.32 2.172-2.32 4.359 0 1.305 0.453 2.641 1.363 4 1.09 1.652 2.73 3.117 4.918 4.399-0.028-0.161 0.039-0.493 0.199-1 0.106-0.317 0.055-0.477-0.16-0.481 1.207 0.004 3.113 0.496 5.723 1.481 2.796 1.015 4.531 1.949 5.199 2.8 0.64 0.825 1.254 2.602 1.84 5.321 0.371 1.707 1.437 2.558 3.199 2.558 2.453 0 6.281-1.691 11.48-5.078-0.16 0.746-0.695 1.465-1.601 2.16-1.117 0.719-1.907 1.25-2.36 1.598l0.161-0.078 6.558-3.602c1.387-1.304 2.43-2.211 3.121-2.719 0.375-0.269 0.68-0.468 0.922-0.601zm6.957 0.519 1.641-0.238-2.117 0.039 0.476 0.199zm18.203 1.36c-0.988 0.402-1.789 0.601-2.402 0.601-2.426-0.828-4.305-1.414-5.641-1.761 1.071 0.32 2 0.761 2.801 1.32 1.121 0.801 1.828 1.203 2.121 1.203 0.055 0 1.094-0.457 3.121-1.363zm-44.678-38.797-0.481-0.922c-1.68-0.906-2.453-2.707-2.32-5.398-2.215-0.403-4.199-1.204-5.961-2.403-1.68-1.144-2.52-2.199-2.52-3.16 0-0.984 0.535-1.652 1.602-2 0.984-0.344 2.758-0.519 5.316-0.519 1.067 0 1.789 0.121 2.16 0.363l-2.558-4.524c-0.293 0-1.84 0.309-4.641 0.922-2.851 0.614-4.597 0.918-5.238 0.918-0.828 0-2.469-0.304-4.922-0.918-2.398-0.586-4.199-1.121-5.398-1.601 0 2 0.226 3.734 0.679 5.203 0.453 1.465 0.68 2.398 0.68 2.797 0 0.586-0.281 1.281-0.84 2.082 1.145-0.188 2.574-0.426 4.281-0.723 1.305-0.211 2.454-0.316 3.438-0.316 2.586 0 4.309 0.238 5.16 0.718 0.535 0.293 1.055 1 1.563 2.122 1.597 3.359 2.597 5.492 3 6.398 1.144 2.719 1.718 4.691 1.718 5.922l-0.039 2.316h-6.441l-0.961-0.199c0.375 0.348 1.066 0.586 2.082 0.723 1.012 0.16 1.934 0.238 2.758 0.238 2.883 0 4.64-1.188 5.281-3.559 0.078-0.32 0.121-1.8 0.121-4.441l2.481-0.039zm8.039 7c0.558 0.613 1.425 1.293 2.597 2.039-0.078-0.293-0.343-1.453-0.797-3.48-0.453-2-0.855-3.215-1.203-3.641l-0.238 0.879c-0.078 1.816-0.199 3.215-0.359 4.203zm-21.922 9.078-5.039 0.68h0.16l3.359-0.399 1.52-0.281zm29.16-4.801c0.348 0.188 0.949 0.321 1.801 0.403 1.332 0.16 2.519 0.023 3.558-0.403-1.597 0.188-3.383 0.188-5.359 0zm8.883-21.16 0.957 2.043c-0.078-0.32-0.239-0.723-0.481-1.199-0.211-0.485-0.371-0.762-0.476-0.844zm-5.319-10.519c-2 0.054-3.336-0.094-4-0.438-0.695-0.375-1.226-0.562-1.601-0.562-0.535 0-3.227 1.281-8.078 3.839-0.59 0.348-1.149 0.813-1.684 1.403-0.933 1.066-1.476 2.519-1.637 4.359 2.348-0.375 6.028 0.613 11.039 2.961 5.282 2.449 8.348 3.68 9.2 3.68 0.879 0 1.558-0.188 2.039-0.563 0.426-0.347 0.773-0.89 1.043-1.64-1.043-0.453-2.336-1.825-3.883-4.118-1.734-2.585-2.598-4.839-2.598-6.761 0-0.532 0.051-1.254 0.16-2.16z"/>
      <path id="path16" style="fill-rule:evenodd;fill:#9b9286" d="m193.24 50.717c0 1.203-0.746 2.215-2.238 3.043-1.492 0.852-3.309 1.282-5.441 1.282-1.145 0.238-2.25 0.398-3.321 0.476l-2.117 0.684v0.879l5.359-0.161c0.243 0 0.961 0.293 2.161 0.879 1.199 0.614 2.972 0.922 5.32 0.922 0.133 0 2.105 0.024 5.918 0.078 3.949-0.238 6.359-1.039 7.242-2.398l0.039-0.16c-1.308-2.133-2.148-3.668-2.519-4.602-0.161 0.856-0.282 1.735-0.36 2.641l-1.601-4.399 1.64-0.718c0.746-1.469 1.282-3.442 1.602-5.922 0.266-2.133 0.293-3.668 0.078-4.602l-3.68-1.398c-0.375 0.668-0.746 1.508-1.121 2.519l-1.32-1.281c-0.133 0.27-0.586 1.641-1.356 4.121-0.8 2.586-1.253 4.012-1.363 4.281-0.453 1.039-0.812 1.731-1.078 2.079-0.402 0.507-0.894 1.292-1.48 2.359l-0.282-0.758-0.082 0.156zm-34.8-44.437c-0.535 0.133-1.402 0.719-2.601 1.758-1.867 1.629-3.039 2.629-3.52 3-0.398-0.879-0.668-1.411-0.8-1.598l-0.399 0.32c0.266 2.051 0.067 4.52-0.601 7.399-0.747 2.691-1.161 4.332-1.239 4.918v1.722l0.918 0.078c0.801-0.453 1.469-2.347 2-5.679 0.586-3.735 0.989-5.785 1.199-6.16 0.028 0.027 0.137 1.226 0.321 3.601 0.187 1.973 0.894 3.348 2.121 4.121 0.531-0.562 1.734-1.375 3.598-2.441 1.949-1.067 3.402-1.707 4.363-1.922h-0.082c0.426-0.184 0.84-0.305 1.242-0.359 1.359-0.371 2.359-0.598 3-0.68l-3.043-1.32 4.203 0.082c0.586 0 2.465-0.082 5.637-0.243 3.574-0.183 6.094-0.347 7.562-0.48 0-0.105 0.2-0.16 0.598-0.16-0.266-1.758-2.453-2.637-6.559-2.637-3.625 0-6.652 0.133-9.082 0.399-0.316 0.027-1.199 0.293-2.64 0.8l-2.117 0.758c-0.055 0-0.2-0.144-0.442-0.441l-0.039 0.082c-0.082-0.106-0.148-0.215-0.199-0.321-0.32-0.347-0.735-0.824-1.242-1.437-1.25-1.52-1.973-2.574-2.157-3.16zm-134.56 9.558c2.16 0.215 4.414 1.094 6.762 2.641 2.238 1.492 3.398 2.238 3.48 2.238 0.16 0 0.879-0.355 2.16-1.078 1.278-0.691 2.172-1.039 2.68-1.039 2 0 3.934 1.36 5.801 4.078 0.933 1.387 1.664 2.789 2.199 4.199 0 0.801-0.934 2.602-2.801 5.403-1.359 2.082-2.988 4.347-4.879 6.801 0.852 0.293 1.598 0.453 2.239 0.48l0.121 0.957 2.039 0.16c0.132 0 0.867-0.265 2.199-0.801 1.762-0.585 3.707-0.972 5.84-1.16 0.187-0.023 0.988-0.117 2.402-0.277 1.254-0.16 2.266-0.254 3.039-0.281-0.988-0.453-1.949-0.84-2.879-1.16-3.359-0.133-6.203-0.067-8.519 0.199l-0.922 0.242 2.719-1-3.321-0.242c0.883-0.481 3.684-1.078 8.403-1.797h0.121c1.25-0.535 3.84-0.602 7.758-0.203-0.106-0.16-0.813-0.547-2.122-1.16-1.73 0.187-2.957 0.269-3.679 0.242l-4.36 0.48c0.028-1.547 0.707-3.347 2.039-5.398 0.989-1.524 1.829-2.563 2.524-3.121 0.504-0.508 0.918-0.84 1.238-1 0.559-0.801 0.84-1.492 0.84-2.082 0-0.399-0.227-1.332-0.68-2.797-0.453-1.469-0.679-3.203-0.679-5.203 1.199 0.48 3 1.015 5.398 1.601 2.453 0.614 4.094 0.918 4.922 0.918 0.641 0 2.387-0.304 5.238-0.918 2.801-0.613 4.348-0.922 4.641-0.922l-0.762-1.238c-1.066 0.215-2.383 0.399-3.957 0.559-1.336 0.16-2.254 0.242-2.762 0.242-0.558 0-2.757-0.375-6.597-1.121-3.867-0.746-6.067-1.117-6.602-1.117-0.453 0-1.16 0.039-2.121 0.117-1.094 0.055-1.973 0.133-2.641 0.238 0.215 0.402 0.442 0.988 0.68 1.762 0.242 0.719 0.363 1.148 0.363 1.281 0 3.094-0.722 6.734-2.16 10.918-1.469 4.27-3 7.109-4.601 8.52l-1.039 0.761c0.453-1.359 0.984-2.468 1.597-3.32 0.321-0.453 0.762-1.039 1.321-1.762 0.828-1.304 1.253-4.316 1.281-9.039-0.453-1.066-1.145-3.84-2.078-8.32-0.989 0.215-1.75 0.32-2.282 0.32-0.32 0-2.492-0.961-6.519-2.879-4.402-2.082-7.215-3.308-8.441-3.679l-1.079-0.243c-0.8-0.105-2.562-0.16-5.281-0.16-2.879 0-4.801 0.496-5.762 1.481-0.824 0.883-1.32 2.668-1.476 5.359 0.558 0 1.797 0.188 3.719 0.563 2.504 0.504 4.254 1.093 5.238 1.757zm-10.238 0.321c-0.668-0.028-1.973 0.386-3.922 1.242-1.731 0.719-2.824 1.25-3.278 1.598l-0.441 0.402c0.453-0.16 0.945-0.363 1.48-0.602 3.786-1.625 5.84-2.507 6.161-2.64zm-11.68 4.801c0.426-0.083 1.707-0.575 3.84-1.481 0.211-0.586 0.906-1.879 2.078-3.879 0.883-1.469 1.133-3.16 0.762-5.082l-0.243-0.402c-2.05 0.933-4.066 2.695-6.039 5.281-1.574 2.402-2.359 3.629-2.359 3.68 0 0.082 0.145 0.281 0.441 0.601 0.399 0.426 0.907 0.856 1.52 1.282zm58.961 29.281h-0.082l-2.399 0.32 3.118-1.402c-1.571 0.187-3.094 0.414-4.559 0.679-2.16 1.336-3.652 2.309-4.48 2.922-0.508 0.453-0.961 0.825-1.36 1.117-0.027 0.829-0.015 1.668 0.039 2.52 0.106-0.133 0.426-0.559 0.961-1.277 0.535-0.723 0.867-1.11 1-1.16 0.879-0.723 1.895-1.375 3.039-1.961 1.629-0.852 3.199-1.438 4.723-1.758zm36.797 23.558c-0.934 0.028-1.774 0.239-2.52 0.641l0.879-0.801-6.558 3.602c0.375-0.188-1.094 0.851-4.399 3.117l0.598 0.16c0.426-0.133 2.359-1.066 5.801-2.801 0.613-0.718 1.402-1.465 2.359-2.238l0.601-0.48-2.16 2.199c0.934-0.586 1.973-1.266 3.121-2.039 0.692-0.481 1.454-0.934 2.278-1.36zm-1.481 31.68h0.043c0.133-0.133 0.266-0.254 0.399-0.359 0.347-0.266 0.718-0.508 1.121-0.719 0.961-0.617 2.277-1.375 3.961-2.281 3.066-1.68 4.758-2.641 5.078-2.879 0.719-0.535 2.949-1.297 6.68-2.281 3.574-0.961 5.839-1.454 6.8-1.481l-1-0.078c0.508-2.535 0.758-3.977 0.758-4.32 0-1.629-0.316-2.895-0.957-3.801-0.801-0.879-1.387-1.653-1.762-2.32l-1.32-0.083c-0.586 1.657-2.531 2.696-5.84 3.122-1.758 0.242-3.183 0.453-4.277 0.64-0.906 0.215-1.695 0.399-2.36 0.559-0.109 0.054-0.187 0.094-0.242 0.121-1.785 1.176-5 3.492-9.64 6.961l-0.399 2.398c0.348 2.055 0.973 3.856 1.879 5.403l1 1.277 0.078 0.121zm97.242-63.68c0.133-0.882 0.2-1.961 0.2-3.238l-0.16 0.039c0.082 0.774 0.066 1.84-0.04 3.199zm-28.2 10.48c-2.133-1.36-3.441-2.176-3.922-2.442h-1c0.215 0.215 0.829 0.813 1.84 1.801 1.227 1.227 2.629 2.692 4.203 4.399 0.719 0.773 1.571 2.043 2.559 3.8 0.984 1.442 2.172 2.282 3.559 2.52l0.042-0.438 3.719-0.359c-0.347-0.215-0.855-0.867-1.519-1.961-0.907 0-1.684-0.562-2.321-1.68-0.668-1.093-1-2.414-1-3.96-0.746-0.668-1.695-1.11-2.839-1.321-1.309-0.215-1.973-0.332-2-0.359l-1.403-0.121 0.082 0.121zm28.797-31.719c-1.172 1.863-2.785 4.039-4.84 6.516-0.05 0.668-0.785 2.453-2.199 5.363-1.465 2.879-2.266 4.453-2.398 4.719 1.148-0.746 2.347-1.399 3.597-1.961 0.403-0.348 1.551-1.188 3.442-2.52 1.547-1.093 2.652-1.972 3.32-2.64 0.641-0.641 1.199-2.121 1.68-4.438 0.242-1.203 0.492-2.496 0.761-3.883l0.36-0.718v-0.039l-0.16-0.762-0.481-0.039c-0.668 0.215-1.695 0.347-3.082 0.402zm-36 56.359c6.856 2.774 10.734 4.305 11.645 4.598 1.515 0.453 3.238 0.52 5.156 0.199 1.016-0.504 1.762-1.437 2.242-2.797 0.32-0.855 0.785-2.816 1.399-5.882-0.454-0.266-1.758 0.175-3.918 1.32-2.723 1.441-4.84 2.348-6.36 2.723-1.441 0.347-3.176 0.437-5.203 0.277-2.266-0.238-3.918-0.387-4.961-0.438zm-18.797-7.882c0.16 0.054 0.52 0.254 1.078 0.601 0.536 0.348 0.84 0.559 0.922 0.641-1.734 0.984-3.093 1.504-4.082 1.558 0.774 0 1.973 0.176 3.602 0.52 2.293 0.508 4.293 1.16 6 1.961 2.211 0.242 3.824 0.453 4.84 0.641 1.199 0.238 2.597 0.625 4.199 1.16l5.519 0.32c1.414 0 2.403-0.188 2.961-0.563 1.946-1.304 2.934-1.972 2.957-2 0.215-0.292 0.668-0.769 1.364-1.437 0.504-0.48 0.945-1.066 1.32-1.762 0.105-0.851 0.16-2.453 0.16-4.801 0-2.343-0.789-3.57-2.363-3.679-0.934 0.027-1.653 0-2.16-0.078-0.879-0.16-1.586-0.559-2.118-1.2-0.746-0.882-1.226-1.949-1.441-3.203-0.133-0.664-0.68-1-1.641-1-2.238-0.183-4.414-0.199-6.519-0.039-4.133 0.321-6.559 1.336-7.281 3.039-0.985 1.762-1.625 2.977-1.918 3.641l-0.121-0.797-1.758 1.918 0.758 0.719c-2.586 2.375-4.012 3.656-4.278 3.84zm-0.121 22.601c-0.558-0.398-1.828-1.172-3.801-2.32-1.652-0.692-2.879-1.16-3.679-1.399 0.718 0.559 1.359 0.985 1.918 1.278 0.855 0.429 2.711 1.242 5.562 2.441zm-11.8-16.359c-0.48 0.133-3 1-7.558 2.597 1.574-1.304 2.453-2.066 2.64-2.277 0.211-0.082 1.707-0.75 4.481-2l-1.602-0.039c0.774-0.801 1.348-1.32 1.719-1.562 0.32-0.215 1.32-0.707 3-1.481-0.453 0.082-0.984 0.227-1.598 0.442l-3.16 1.238c-2.027 0.906-3.066 1.363-3.121 1.363-0.293 0-1-0.402-2.121-1.203-0.797-0.559-1.73-1-2.797-1.32-0.613-0.161-1.281-0.293-2-0.399-1.629-0.078-3.801-0.094-6.519-0.039l-1.641 0.238 1.117 0.52 2.082-0.117c2.321 0 3.879 0.492 4.68 1.476 0.746 0.989 1.254 3.11 1.519 6.364h-0.757l-0.043 1.199 1.441-1.32 0.199 1.281h0.602l1.719 0.039 0.238 2.199 0.762 0.602c-0.403-0.563-0.602-1.121-0.602-1.68 0-0.32 0.027-0.496 0.082-0.524l0.199-0.078-0.519-0.64c0.32-0.532 1.215-1.305 2.679-2.321 1.653-1.121 3.282-1.972 4.879-2.558zm14.6-11.68c0-0.695-0.336-1.293-1-1.801-0.668-0.48-1.469-0.718-2.402-0.718 0.402 0.183 1.535 1.023 3.402 2.519zm-9.039-3.562c0.531 0.668 1.371 1 2.516 1 0.617 0.027 1.242-0.024 1.882-0.161l-4.398-0.839zm11.637 3.32h0.121l0.199 0.359c0.133 0.215 0.266 0.27 0.398 0.16l-0.797 0.801 0.079-1.32zm-8.56-22.957c-0.266-0.774-0.785-2.922-1.559-6.441 0-0.215 0.094-0.895 0.282-2.043 0.156-1.172 0.25-2.09 0.277-2.758-0.266-0.215-0.574-0.375-0.918-0.481-0.559 0.668-1.016 1.785-1.359 3.36-0.481 2.16-0.828 3.507-1.043 4.039-1.227 3.203-4.172 4.789-8.84 4.761-3.094 0-6.481 0.52-10.16 1.559-3.598 1.016-6.239 2.148-7.918 3.402 0.48-0.214 1.371-0.652 2.679-1.32 1.547-0.562 3.575-0.84 6.082-0.84 3.09 0 5.344 0.238 6.758 0.719 1.227 0.402 2.215 1.148 2.961 2.242 0.481 0.664 1.266 1.985 2.36 3.957 1.281 2 2.906 3.949 4.878 5.84l1.641 0.121c0.16-0.16 0.426-0.332 0.801-0.519 0.266-0.215 0.402-0.52 0.402-0.922 0-0.078-0.23-0.614-0.683-1.598-0.481-1.121-0.719-1.973-0.719-2.562 0-1.653 0.68-3.383 2.039-5.2 1.363-1.84 2.043-3.613 2.043-5.316h-0.004zm-33.68 28.117-0.601-0.117v0.879l0.601-0.762zm0.602-1.078c0.183-0.535 0.613-3.867 1.277-10 0-1.066-0.238-1.813-0.719-2.242-0.347-0.321-1.039-0.613-2.082-0.879-3.386-0.828-6.253-2.055-8.597-3.68 0.504-0.082 2.32-0.32 5.437-0.722 2.907-0.504 4.364-1.211 4.364-2.118 0-0.16-0.082-0.32-0.243-0.48-0.265-0.188-0.492-0.375-0.679-0.559h-0.078l1.957-0.562c5.386-3.25 9.363-5.266 11.921-6.039 1.442-0.453 3.598-1.082 6.481-1.879-1.469 0.371-2.973 0.691-4.52 0.957l-2.8 1.043c-1.2 0.453-2.426 0.906-3.68 1.359-2.535 0.934-3.973 1.399-4.32 1.399-0.161 0-1.961 0.547-5.403 1.64-1.039 0.426-2.226 0.559-3.558 0.399-0.852-0.078-1.453-0.211-1.801-0.399-1.172-0.133-2.024-0.304-2.559-0.519-0.933-0.348-1.625-0.918-2.082-1.719-1.172-0.746-2.039-1.426-2.597-2.039l-0.282 2.84c0.082 0.16 0.121 0.89 0.121 2.199 2.375 4.133 4.254 6.508 5.641 7.121 0.481 0.211 1.293 0.504 2.438 0.879 1.226 0.48 2.562 1.266 4 2.359 1.894 1.414 2.855 2.828 2.882 4.239-0.32 2.402-0.496 4.867-0.519 7.402zm40.476-33.762 0.961-3.597c-0.425 0.183-0.8 0.398-1.121 0.636 0.028 1.629 0.082 2.614 0.16 2.961zm38.403 7.039 0.64-0.437v-0.199l-0.64 0.636zm-33.52-12.238c0.371-0.215 0.797-0.602 1.281-1.16 0.532-0.641 1.36-1.785 2.477-3.442-0.449 0.375-1.16 1.188-2.117 2.442-0.961 1.254-1.508 1.973-1.641 2.16zm-45.76-15.641c0.054 1.973 0.148 3.95 0.281 5.922 0.398 1.09 0.746 1.946 1.039 2.559l-0.199-2.442 1.757 1.481c0.161-1.891 0.668-3.414 1.524-4.559 0.984-1.308 2.344-1.961 4.078-1.961 6.398 0 10.066 0.348 11 1.039 0.375 0.27 0.68 0.801 0.922 1.602 0.289 1.016 0.68 1.867 1.156 2.559 0.11 0.054 0.508 0.336 1.199 0.839 0.696 0.508 1.094 0.817 1.203 0.922 0.161-0.027 0.84-0.238 2.04-0.64 1.171-0.426 1.828-0.641 1.96-0.641-0.746-0.586-1.867-1.187-3.359-1.801-1.469-0.64-2.75-1.386-3.844-2.238-0.05-0.055-0.211-0.641-0.476-1.762-0.293-1.25-0.602-2.144-0.922-2.679-0.934-1.52-2.852-2.278-5.758-2.278-4.801 0.371-7.922 0.586-9.359 0.637-1.121 0-1.801 0.027-2.043 0.082-0.907 0.266-1.52 0.945-1.84 2.039l-0.359 1.32zm24.8 11.321-0.039 0.922-1.121-0.922-3.281 0.121c0 2.293 0.281 3.945 0.844 4.961l-0.04-1.281c2.265 0.32 4.121-0.801 5.558-3.36 1.121-2 1.641-3.601 1.563-4.801 0 1.2-0.336 2.227-1 3.078-0.696 0.856-1.52 1.282-2.481 1.282zm-60.601 25.32-1.52 0.281c1.52-0.109 2.789 0.028 3.801 0.399 1.039-0.028 2.68 0.492 4.922 1.558 3.41 1.657 6.785 3.028 10.117 4.121 0.535 0.161 1.961 0.414 4.281 0.762 1.918 0.266 3.133 0.598 3.641 1 0.371 0.266 1.094 1.199 2.16 2.801 1.012 1.519 1.852 2.879 2.52 4.078 0.187 0.348 0.906 1.281 2.16 2.801 0.801 0.984 1.238 2 1.32 3.039 0.481-0.399 0.801-0.774 0.957-1.121 0.11-0.211 0.215-0.504 0.32-0.879l-1.72-0.442c0.48-0.585 0.718-1.277 0.718-2.078 0-0.906-0.238-1.894-0.718-2.961-0.133-0.238-0.36-0.652-0.68-1.238-0.32-0.668-0.492-1.039-0.52-1.121v-0.039c-1.015-1.602-1.906-2.656-2.679-3.16-0.375 0-0.68-0.094-0.922-0.281-0.266-0.161-0.399-0.372-0.399-0.641-0.988-0.613-2.027-1.172-3.121-1.68-0.453-0.16-0.972-0.293-1.558-0.398-1.973 0.051-3.696-0.055-5.16-0.32l-0.68-0.083c-0.906 0-2.375-0.304-4.402-0.917-1.786-0.532-2.891-0.918-3.321-1.161-0.504-0.132-1.586-0.613-3.238-1.437-1.52-0.75-2.613-1.16-3.281-1.242-0.824 0.027-1.824 0.144-3 0.359zm43.48 23.961-4.238-0.242c0.133 0.027 1.105 0.215 2.918 0.562 1.601 0.293 2.656 0.465 3.16 0.52-0.586-0.348-1.199-0.629-1.84-0.84zm-20.962-38.121-0.316-0.442 0.078 1.321 0.238-0.879zm-20.797 9.519 0.84 1.84-6.679-3.519c0.183 0.293 0.503 0.945 0.957 1.961 0.453 0.957 0.933 1.652 1.441 2.078-0.746 0.187-1.934 0.519-3.559 1-1.468 0.453-2.402 0.762-2.8 0.922l4.437-0.641c0.856-0.266 1.524-0.519 2-0.762 0.481-0.183 1.641-0.398 3.481-0.64l3.043-0.039-3.161-2.2zm3.2 2.2c1.254-0.078 2.504-0.118 3.757-0.118 0.536 0 2.563 0.2 6.082 0.598l1.442-0.039 0.039-0.117c0.051-0.082 0.16-0.16 0.32-0.242-0.668-0.668-1.922-1.535-3.761-2.602-0.692-0.398-1.04-1.387-1.04-2.957 0-1.894 0.493-3.441 1.481-4.641 0.801-0.96 1.012-2.132 0.641-3.519l-2.481 0.039c0 2.641-0.043 4.121-0.121 4.441-0.641 2.371-2.398 3.559-5.281 3.559-0.824 0-1.746-0.078-2.758-0.238-1.016-0.137-1.707-0.375-2.082-0.723l-1.641-0.801 0.282 0.602c0.242 0.238 1.121 1.375 2.64 3.398 1.547 2.028 2.375 3.149 2.481 3.36zm8.48-14.559c-0.082-0.16-0.187-0.465-0.32-0.918-0.188-0.668-0.309-1.293-0.36-1.883l0.52-2.597h-2.16c-0.133 2.691 0.64 4.492 2.32 5.398zm0.957-6.602-0.199-1.476c-0.133-0.856 0.387-1.789 1.562-2.801 0.161-1.84 0.704-3.293 1.637-4.359 0.535-0.59 1.094-1.055 1.684-1.403 4.851-2.558 7.543-3.839 8.078-3.839 0.375 0 0.906 0.187 1.601 0.562 0.664 0.344 2 0.492 4 0.438l0.039-0.719c0-2.481-1.949-3.719-5.839-3.719-3.227 0-5.973 0.801-8.243 2.399-2.023 1.441-3.57 3.441-4.636 6 0.05 1.199-0.055 2.281-0.321 3.242 0 1.703-0.136 3.09-0.402 4.16l0.039 1.758c0-0.106 0.027-0.227 0.082-0.36 0.051-0.16 0.145-0.281 0.281-0.359 0.133-0.055 0.266-0.039 0.399 0.039 0.105 0.078 0.187 0.227 0.238 0.437z"/>
      <path id="path18" style="fill-rule:evenodd;fill:#7c7367" d="m222.04 30.799c-0.184-1.734-1.012-3.105-2.48-4.121-1.731-1.172-4.266-1.758-7.598-1.758l-1.801 0.2c0.531 2.718 1.028 5.918 1.481 9.597l-0.2 0.602c-0.16-0.106-0.613-0.305-1.363-0.602-0.746-0.265-1.183-0.41-1.316-0.437 0.078 0.051 0.504 0.398 1.277 1.039s1.242 0.961 1.402 0.961c1.332 0 2-0.906 2-2.719 0-1.176-0.293-3.336-0.879-6.48 1.227-0.161 2.25-0.243 3.079-0.243 1.867 0 2.949 0.653 3.238 1.961 0.082 2.692 0.187 5.399 0.32 8.118 0.801-0.692 1.496-1.825 2.082-3.399 0.504-1.254 0.758-2.16 0.758-2.719zm-75.918-16.441-0.48 0.402c-0.614 0.399-1.227 0.731-1.84 1-0.856 1.813-1.547 3.36-2.082 4.641-1.039 2.449-1.559 4.785-1.559 7 0 0.586 0.172 2.879 0.52 6.879 0.347 4.16 0.519 6.371 0.519 6.64 0.613 0.586 1.239 1.239 1.879 1.957 0.586 0.536 1.574 1.083 2.961 1.641-0.719-0.851-1.266-1.758-1.641-2.719l-0.32-1.121c0.453 0 1.426 0.496 2.922 1.485 1.84 1.222 4.133 2.332 6.879 3.316-0.906-0.348-1.746-0.707-2.52-1.078-2-0.988-3.828-2.508-5.48-4.563l-0.16-0.238c-1.387-1.762-2.481-3.695-3.281-5.801-0.774-2.027-1.161-3.894-1.161-5.597 0-4.348 0.36-7.082 1.082-8.203 0.161-0.239 0.774-0.957 1.84-2.161 1.039-1.332 1.68-2.492 1.922-3.48zm-124.64-9.641c1.2 0.16 2.415 0.282 3.641 0.364-0.32-0.133-0.84-0.254-1.562-0.364-0.664-0.078-1.278-0.105-1.84-0.078h-0.039l-0.2 0.078zm103.4 91.16-1.758 1.602c-0.773 0.398-1.519 0.668-2.242 0.801l1.281 0.32c-0.453 0.371-1.254 0.824-2.398 1.36-1.149 0.535-2.11 0.894-2.883 1.078l-1 0.402c1.976 0 4.133-0.535 6.48-1.602 2.321-1.011 3.829-1.531 4.52-1.558 0.008-0.215 0.433-0.375 1.281-0.481 0.934-0.105 1.906-0.066 2.918 0.121 2.883 0.481 4.551 1.797 5 3.957l0.524 0.043c0.16-0.027 0.32-0.093 0.476-0.203 0.188-0.105 0.348-0.265 0.484-0.476l0.079-0.16c0.105-0.481 0.254-1.454 0.441-2.922 0.371-0.692 0.824-1.387 1.359-2.078-1.652-2.161-2.785-3.536-3.402-4.121-2.051-2.028-4.586-3.641-7.598-4.84l-0.32-0.039c2.188 1.093 3.774 2.039 4.758 2.839 0.961 0.825 1.777 1.891 2.441 3.2-0.371-0.321-1.027-0.586-1.957-0.801-0.722-0.16-1.308-0.238-1.761-0.238-1.067 0-1.774 0.199-2.122 0.597-0.156 0.16-0.316 0.586-0.48 1.282-0.293 1.281-1.668 1.917-4.121 1.917zm6.402-1.359c0.824 0.109 1.36 0.309 1.598 0.602 0.269 0.32 0.773 1.453 1.519 3.398-0.398-0.558-1.343-1.16-2.839-1.801-1.731-0.746-2.653-1.156-2.758-1.238l0.2-0.238c0.266-0.188 0.652-0.348 1.16-0.481-0.055-0.64-0.055-1.308 0-2l0.559-0.121c0.347 0.078 0.535 0.172 0.558 0.281v1.598h0.004zm57.36-14.918c-0.266-9.414-2.321-14.121-6.161-14.121-1.601 0-3.375 0.254-5.32 0.762-2.027 0.531-3.437 1.16-4.238 1.879l-0.641 0.8c0.133-0.375 0.442-1.64 0.918-3.8 0.266-1.176 0.653-1.762 1.16-1.762l2.961 0.441c2.106 0.321 3.559 0.481 4.36 0.481 0.398 0 1.851-0.039 4.359-0.121 2.348-0.078 4.133-0.106 5.359-0.078 0.348-0.43 0.52-0.653 0.52-0.68l0.559-0.524 1.363-0.519c-0.028-0.16-0.188-0.25-0.481-0.277l-2.683-0.364c-1.356 0.055-3.317 0.055-5.879 0-4.664-0.105-7.508-0.156-8.52-0.156l-3.718 0.359-0.039 0.438c0.183 0.613 0.21 1.32 0.078 2.121-0.239 1.492-1.121 3.559-2.641 6.199-0.371 0.696-0.812 1.282-1.32 1.762-0.692 0.664-1.145 1.145-1.36 1.437 1.176 0.27 2.043 0.083 2.602-0.558 0.242-0.266 0.641-1.067 1.199-2.399 1.043-2.585 3.094-3.882 6.16-3.882 2.133 0 3.801 0.695 5 2.082 1.309 1.492 1.961 3.652 1.961 6.48 0 0.906-0.574 2.133-1.722 3.68-1.864 2.558-3.559 5.332-5.079 8.32l-1.32 2.598c-0.105 0.429-0.254 0.894-0.441 1.402-0.133 0.293-0.239 0.531-0.317 0.719l0.879-0.16c0.321 0 1.266-0.293 2.84-0.879 1.949-1.36 3.734-2.547 5.359-3.563 0.879-0.691 1.961-2.105 3.243-4.238 0.398-1.172 0.691-2.238 0.879-3.199 0-0.055 0.015-0.121 0.039-0.199 0-0.028 0.015-0.067 0.043-0.121v-0.122c0-0.054 0.011-0.121 0.039-0.199v-0.039zm15-27.961c1.039-2.879 1.574-4.359 1.597-4.441l-1.918 1.961-1.64 0.718 1.601 4.403c0.078-0.906 0.199-1.789 0.36-2.641zm-2.321-14.398 3.68 1.398 3.078 0.52c-0.023 1.414-0.211 2.691-0.558 3.84 0.48-0.825 0.972-1.614 1.48-2.36 0.266-0.508 0.402-1.105 0.402-1.801 0-1.171-0.347-1.945-1.043-2.32-0.613-0.344-1.824-0.519-3.636-0.519-1.364 0-2.297 0.054-2.801 0.16-0.508 0.133-0.867 0.402-1.082 0.801l0.48 0.281zm7.961-7.961c-0.402-0.934-0.84-1.535-1.32-1.801-0.481-0.238-0.828-0.625-1.039-1.16-0.375-0.906-0.656-1.465-0.844-1.68-0.344-0.375-0.918-0.558-1.719-0.558-1.597 0-2.531 0.16-2.797 0.48-1.015 1.199-2.054 2.172-3.121 2.918-0.242 0.426-0.386 1.172-0.441 2.238-0.051 2.27-2.305 4.524-6.758 6.762-4.883 2.027-7.816 3.293-8.801 3.801l-0.64 0.437-1.602 1.282c2.668 0 5.387-0.481 8.16-1.438 1.469-0.508 3.188-1.16 5.161-1.961l0.16-0.039c5.601-1.387 8.586-3.684 8.961-6.883 0.16-1.066 0.691-1.785 1.597-2.16 0.75-0.316 2.071-0.48 3.961-0.48 0.453 0 0.813 0.082 1.082 0.242zm-5.402 4.597c0.242-0.132 0.723-0.265 1.441-0.398 0.668-0.105 1.215-0.16 1.641-0.16 0.238 0 0.625-0.094 1.16-0.281 0.559-0.211 1.012-0.426 1.359-0.637-3.199 0.426-5.613 0.891-7.242 1.398l1.641 0.078zm-50.88 45.321v0.082c-0.027 0.719-0.027 1.121 0 1.199-0.613 0.508-1.148 0.922-1.602 1.238-0.851 0.59-3.023 1.309-6.519 2.16 1.707 0.458 3.816 0.11 6.32-1.039 2.641-1.199 4.016-2.625 4.121-4.277-0.293-0.801-0.558-1.32-0.8-1.562-0.082-0.055-0.161-0.094-0.243-0.122-0.316-0.05-0.597 0.149-0.839 0.602-0.266 0.453-0.411 1.027-0.438 1.719zm-25.28-44.598c0.586-0.695 1.441-1.519 2.558-2.48 0.934-1.016 1.629-2.493 2.082-4.442-1.359 0.321-2.906 2.629-4.64 6.922zm5.203-15.723c-0.055 0.188-0.484 1.071-1.281 2.641-0.989 1.949-2 4.16-3.043 6.641 0.429-0.641 1.308-1.574 2.64-2.797 1.121-1.496 1.684-3.656 1.684-6.485zm32-11.437c-0.242-0.055-1.176-0.309-2.801-0.762-1.016-0.293-2.176-0.437-3.48-0.437 0.558 0.773 1.625 2.32 3.199 4.636 0.051 0.11 0.121 0.215 0.199 0.321l0.039-0.078 0.199-1c0.028-1.043 0.336-1.746 0.922-2.121 0.11-0.079 0.68-0.266 1.723-0.559zm6 7.641c-2.883-0.082-4.867-0.094-5.961-0.043-0.402 0.054-0.816 0.175-1.242 0.363h0.082c0.293 0.023 2.094 0.051 5.398 0.078 2.453 0.027 5.453 0.426 9 1.199 5.039-0.718 9.055-0.574 12.039 0.442 1.551 0.531 2.828 1.187 3.84 1.961 0.535 0 0.844 0.023 0.922 0.078h1.84l0.121-0.68c-0.453-2.48-1.094-4.227-1.922-5.238l-0.559-0.602-0.64-0.32c0.48 1.148 0.719 2.027 0.719 2.641 0 0.32-0.024 0.519-0.079 0.601-0.16 0.316-0.253 0.52-0.281 0.598-0.293-0.184-0.801-0.332-1.519-0.442-0.028 0-0.641-0.066-1.84-0.199-0.082-0.238-0.055-1.266 0.082-3.078 0-1.227-0.617-2.293-1.844-3.199-1.598-1.227-3.945-1.801-7.039-1.723 1.762 0.695 3.121 1.75 4.082 3.16 0.719 1.016 1.078 1.907 1.078 2.684 0 0.504-0.972 0.93-2.918 1.277-2.027 0.348-4.668 0.52-7.922 0.52l-5.437-0.078zm-36.602 9.32c0.453-0.242 0.801-0.309 1.039-0.203 0.082 0.054 0.375 0.32 0.879 0.801l2.403 0.8v-2.48c-0.028-0.641-0.161-1.16-0.403-1.559-0.265-0.453-0.597-0.683-1-0.683-0.265 0-0.613 0.148-1.039 0.441-0.984 0.746-2.121 1.574-3.398 2.481l0.277 0.039 1.242 0.363zm-31.8-11.563 0.359-1.32c0.402-2.183 0.883-3.598 1.441-4.238 0.746-0.906 2.133-1.36 4.16-1.36 0.532 0 2.332 0.051 5.399 0.161 3.309 0.105 5.43 0.199 6.359 0.281 0.75 0.051 1.735 0.625 2.961 1.719 1.176 1.039 1.879 1.89 2.121 2.558v-0.16c0.078 0.535 0.465 1.027 1.16 1.481 0.532 0.375 0.918 0.558 1.161 0.558 0.718 0 1.16-0.453 1.32-1.359 0.078-0.371 0.117-1.254 0.117-2.641 0-1.57-0.668-2.57-2-3-1.707-0.293-2.973-0.68-3.801-1.156-0.91-0.535-2.28-1.055-4.12-1.563-1.867-0.48-3.387-0.718-4.562-0.718-1.438 0-2.426 0.304-2.957 0.918-0.586 0.668-1.922 1.082-4 1.242-1.868 0.133-2.961 0.332-3.282 0.597-1.332 1.067-1.945 3.735-1.839 8zm30.402 1.723c-0.883 1.117-1.563 1.852-2.043 2.199-0.399 0.293-0.867 0.438-1.399 0.438-0.425 0-1.082-0.145-1.96-0.438-0.961-0.32-1.481-0.48-1.559-0.48 0.824 0.906 2.066 1.359 3.719 1.359 1.386 0 2.468-1.027 3.242-3.078zm-6.043 83.719c-0.371 0-0.465-0.106-0.277-0.32 0.183-0.188 0.277-0.079 0.277 0.32zm-2.277-10.242c0.586 1.148 0.972 1.922 1.16 2.32 0.265 0.641 0.398 1.562 0.398 2.762 0 0.453-0.199 1.05-0.601 1.8 0.906-0.96 1.363-1.8 1.363-2.519 0-1.629-0.774-3.082-2.32-4.363zm-48.362-36.239c0.43 0.239 1.535 0.625 3.321 1.161 2.027 0.613 3.496 0.917 4.402 0.917l-7.723-2.078zm6.762-1.48-3.84-0.359c0.426 0.187 1.039 0.292 1.84 0.32 0.453 0.027 1.121 0.039 2 0.039zm4.48 3.68c0.825 0.054 1.598 0.148 2.321 0.281 0.586 0.105 1.105 0.238 1.558 0.398 0.106 0.028 0.614 0.242 1.52 0.641 0.961 0.398 1.547 0.652 1.762 0.762 0.48-0.43 1.027-0.641 1.64-0.641 0.481 0 0.813 0.145 1 0.437 0.184 0.321 0.453 1.122 0.797 2.403l-1.316-0.563c1.011 1.575 1.586 2.481 1.718 2.723v0.039c0.028 0.082 0.2 0.453 0.52 1.121 0.32 0.586 0.547 1 0.68 1.238 0.508 0.321 0.812 0.547 0.922 0.68 0.371 0.348 0.73 0.867 1.078 1.563 0.082-4.801-2.442-8.696-7.559-11.68-1.867-1.121-3.855-1.961-5.961-2.524-1.867-0.476-3.254-0.636-4.16-0.476 1.895 0.344 3.188 0.812 3.879 1.398 0.375 0.321 0.707 0.746 1 1.282-0.426 0.425-0.891 0.73-1.399 0.918zm1-8.559c0-1.309-0.039-2.039-0.121-2.199-1.066-2.453-1.945-4.227-2.64-5.321-1.145-1.789-2.199-2.613-3.16-2.48-0.051 1.68-0.266 3.027-0.637 4.039-0.375 0.988-0.563 1.801-0.563 2.441 0 0.665 0.735 1.282 2.2 1.84 1.972 0.719 3.613 1.957 4.921 3.719v-2.039zm-42.718-32.121c0.933 4.48 1.625 7.254 2.078 8.32l1.082 3c0.078-3.387 0.039-6.586-0.121-9.601-0.188-3.039-0.442-5-0.762-5.879 0.215-0.879 0.348-1.332 0.402-1.36 0.614 0.028 2.371 0.719 5.278 2.078 3.789 1.309 8.308 1.801 13.562 1.485-1.679-0.828-3.281-1.762-4.801-2.801-1.414-1.016-2.425-1.707-3.039-2.082-1.921-1.172-4.8-1.762-8.64-1.762-2.082 0-3.121 0.321-3.121 0.961 0.187 1.735 0.308 2.895 0.359 3.481l0.039 0.922-0.437 8.281c0.027-1.711-0.403-3.777-1.282-6.203-0.828-2.321-1.613-3.774-2.359-4.36 0.586 1.309 1.055 2.614 1.398 3.918 0.243 1.043 0.364 1.575 0.364 1.602zm-32.242-5.039-1.282 0.437-0.558 0.602c-0.028 0.027 0.132 0.547 0.48 1.558 0.293 0.934 0.508 1.563 0.641 1.883l0.719-4.48zm88.84-1.961c-0.48-0.692-1.24-1.172-2.28-1.442-0.721-0.183-1.721-0.277-3.002-0.277-2.371 0-3.879 0.211-4.519 0.641-2.266 1.492-3.454 2.265-3.559 2.32 4.055-0.027 7.359-0.336 9.922-0.922 1.758-0.398 2.906-0.508 3.437-0.32z" />
      <path id="path20" style="fill-rule:evenodd;fill:#898074" d="m219.2 36.92c-0.133-2.718-0.238-5.425-0.32-8.121-0.293-1.304-1.371-1.961-3.238-1.961-0.829 0-1.852 0.082-3.082 0.243 0.586 3.148 0.882 5.304 0.882 6.48 0 1.813-0.668 2.719-2 2.719-0.16 0-0.629-0.32-1.402-0.961s-1.199-0.984-1.277-1.039c-0.856-0.028-1.629-0.051-2.321-0.078-1.336-0.082-2.187-0.188-2.562-0.321l-1.641-0.082c1.629-0.507 4.043-0.972 7.242-1.398 0.243-1.066 0.172-2.109-0.199-3.121-0.269-0.16-0.629-0.238-1.082-0.238-1.89 0-3.211 0.16-3.961 0.476-0.906 0.375-1.437 1.094-1.597 2.16-0.375 3.203-3.36 5.496-8.961 6.883 0 1.281-0.067 2.359-0.2 3.238l-0.48 4.082 0.68 0.039c0.054 1.95-0.067 3.493-0.36 4.641l0.282 0.758c0.586-1.067 1.078-1.852 1.48-2.359 0.266-0.348 0.625-1.04 1.078-2.083 0.11-0.265 0.563-1.691 1.363-4.277 0.77-2.48 1.223-3.855 1.356-4.121l1.32 1.281c0.375-1.015 0.75-1.855 1.121-2.519l-0.48-0.281c0.215-0.399 0.574-0.668 1.082-0.801 0.504-0.106 1.437-0.16 2.801-0.16 1.812 0 3.023 0.175 3.636 0.519 0.696 0.375 1.043 1.149 1.043 2.32 0 0.696-0.136 1.293-0.402 1.801-0.508 0.746-1 1.535-1.48 2.36 0.347-1.149 0.535-2.426 0.558-3.84l-3.08-0.52c0.215 0.934 0.188 2.465-0.078 4.602-0.32 2.476-0.856 4.453-1.602 5.918l1.918-1.961c-0.027 0.082-0.558 1.562-1.597 4.441 0.371 0.934 1.211 2.465 2.519 4.602 0.586-1.414 1.094-3.656 1.52-6.723 0.773-2.984 2.465-5.812 5.078-8.48l6.441-4.118zm-63.36-17.16c-1.227-0.773-1.934-2.148-2.117-4.121-0.188-2.375-0.297-3.574-0.321-3.601-0.214 0.375-0.613 2.429-1.203 6.16-0.531 3.336-1.199 5.226-2 5.679l-0.918-0.078v-1.718c0.082-0.586 0.492-2.227 1.242-4.922 0.665-2.879 0.864-5.348 0.598-7.399l-0.519 0.399c-1.282 1.093-2.625 2.347-4.04 3.761l-0.441 0.442c-0.242 0.984-0.879 2.144-1.918 3.476-1.066 1.204-1.68 1.922-1.84 2.161-0.722 1.121-1.082 3.855-1.082 8.203 0 1.703 0.387 3.57 1.16 5.597 0.801 2.106 1.895 4.039 3.282 5.801l-0.043-0.601c-0.078-0.481-0.184-0.934-0.317-1.36l0.239-0.758 0.839-0.082c-0.48-0.425-0.933-0.824-1.359-1.199-0.824-0.773-1.387-1.414-1.68-1.922-0.078-0.343-0.132-1.332-0.16-2.957 0.32-0.242 0.696-0.453 1.121-0.64 0.16-0.106 0.774-0.321 1.84-0.641 0.961-0.32 1.652-0.641 2.078-0.961 0.133-0.184 0.684-0.906 1.641-2.16 0.961-1.25 1.668-2.067 2.121-2.438 1.598-0.75 4.746-1.175 9.437-1.281h0.204c-1.254-0.883-2.149-1.469-2.68-1.762-0.828-0.476-1.883-0.839-3.164-1.078zm-32.121 9.481c0 0.398 0.187 0.73 0.558 1 0.375 0.293 0.817 0.437 1.321 0.437l0.441 0.563c-0.051 0.797-0.16 1.613-0.32 2.437 0.402-0.531 0.801-1.277 1.203-2.238 0.371-0.828 0.558-1.309 0.558-1.441 0-0.641-0.253-1.051-0.761-1.239-0.824-0.133-1.547-0.269-2.16-0.402l-0.36-0.117c2.16 0.105 3.629 0.078 4.403-0.082 1.039-2.481 2.05-4.692 3.039-6.641 0.8-1.574 1.226-2.453 1.281-2.641-0.082-0.64 0.012-1.613 0.277-2.917 0.215-1.043 0.403-1.762 0.563-2.161v-0.281l-0.84 1.043c-0.774 2.051-1.856 3.078-3.242 3.078-1.653 0-2.891-0.453-3.719-1.359-0.293-1.84-0.508-3.719-0.641-5.641-0.242-0.668-0.945-1.519-2.121-2.558-1.226-1.094-2.211-1.668-2.957-1.719-0.933-0.082-3.054-0.176-6.363-0.281-3.067-0.11-4.863-0.161-5.399-0.161-2.027 0-3.414 0.454-4.16 1.36-0.558 0.64-1.039 2.051-1.441 4.238 0.32-1.09 0.933-1.773 1.844-2.039 0.238-0.051 0.918-0.078 2.039-0.078 1.437-0.055 4.558-0.27 9.359-0.641 2.906 0 4.824 0.758 5.758 2.278 0.32 0.535 0.629 1.429 0.922 2.679 0.265 1.121 0.426 1.711 0.48 1.762 1.094 0.852 2.371 1.602 3.84 2.238 1.492 0.618 2.613 1.215 3.359 1.801l0.321 0.281c0.078 1.2-0.442 2.801-1.563 4.801-1.437 2.559-3.293 3.68-5.558 3.36l0.039 1.281zm-98.599-24.16c-1.226-0.082-2.441-0.204-3.641-0.364-1.199 0.403-2.093 0.789-2.679 1.16l-4.281 2-1 0.403-0.719 4.48c-0.133-0.32-0.348-0.949-0.641-1.883-0.348-1.011-0.508-1.531-0.48-1.558l-2.442 2.48c-0.078-0.293-0.277-0.722-0.597-1.281 0.371 1.918 0.121 3.613-0.762 5.082-1.172 2-1.867 3.293-2.078 3.879-0.055 0.082-0.082 0.148-0.082 0.199l0.281-0.281 0.441-0.398c0.454-0.348 1.547-0.883 3.278-1.602 1.949-0.852 3.254-1.266 3.922-1.238 2.16-0.242 4.332-0.36 6.519-0.36 0.934 0 1.641 0.106 2.121 0.317 0.879 0.402 1.492 0.656 1.84 0.761l0.719-0.117c-0.32-0.375-0.641-0.683-0.961-0.922-0.984-0.668-2.734-1.253-5.238-1.761-1.922-0.371-3.161-0.559-3.719-0.559 0.156-2.691 0.652-4.48 1.476-5.359 0.961-0.985 2.883-1.481 5.762-1.481 2.719 0 4.481 0.055 5.281 0.16-0.269-0.32-0.519-0.586-0.761-0.8-0.426-0.399-0.946-0.719-1.559-0.961v0.004zm114.04 86.558c-2.851-1.199-4.707-2.012-5.558-2.441-0.563-0.293-1.204-0.719-1.922-1.278-1.36-0.453-2.442-0.722-3.239-0.8 3.012 1.199 5.547 2.812 7.598 4.84 0.613 0.585 1.75 1.96 3.402 4.121 0.907-0.829 1.598-1.321 2.079-1.481 0.32-0.105 0.816-0.215 1.48-0.32-0.133-0.133-0.773-0.602-1.918-1.403-1.148-0.773-1.789-1.183-1.922-1.238zm38.24-4.039c1.524-2.988 3.215-5.762 5.082-8.32 1.149-1.547 1.719-2.774 1.719-3.68 0-2.828-0.652-4.988-1.961-6.48-1.199-1.387-2.863-2.082-5-2.082-3.066 0-5.117 1.297-6.16 3.882-0.558 1.332-0.957 2.133-1.199 2.399-0.559 0.641-1.426 0.828-2.598 0.558-0.027 0.028-1.015 0.696-2.961 2-0.558 0.375-1.547 0.563-2.961 0.563l-5.519-0.32c-0.426 0.105-0.867 0.398-1.317 0.879 0.239 0.242 0.504 0.761 0.797 1.562 0-0.453 0.27-0.844 0.801-1.16 0.535-0.32 1.188-0.481 1.961-0.481 1.039 0.051 2.691 0.2 4.957 0.438 2.027 0.16 3.762 0.066 5.203-0.277 1.52-0.375 3.637-1.282 6.36-2.723 2.16-1.145 3.464-1.586 3.918-1.32-0.614 3.066-1.079 5.027-1.399 5.882-0.48 1.36-1.226 2.293-2.242 2.797l-1.117 0.282c0.773 0.105 1.492 0.586 2.16 1.441 0.984 1.254 1.476 2.641 1.476 4.16zm-35.437-24c0.105 0.453 0.172 0.934 0.199 1.438l0.641-0.559 1.758-1.918c0.054-0.934 0.242-2.695 0.562-5.281 0-1.469-0.43-2.426-1.281-2.879-0.563-0.32-1.586-0.484-3.082-0.484-1.094 0-2.039 0.296-2.84 0.882-0.133 0.106-0.797 0.746-2 1.918-1.574 1.547-3.652 2.453-6.238 2.723 1.066 0.211 2.144 0.414 3.238 0.598l4.402 0.839 1.239 0.204c0.933 0 1.734 0.238 2.402 0.718 0.664 0.508 1 1.106 1 1.801zm30.559-1.242c-1.387-0.238-2.575-1.078-3.559-2.52-0.988-1.757-1.84-3.027-2.563-3.8-1.57-1.707-2.972-3.172-4.199-4.399-1.011-0.988-1.625-1.586-1.84-1.801h1l0.918 0.321c0.828 0.402 1.828 1.105 3 2.121l-0.078-0.121c-0.48-1.067-0.945-2.227-1.398-3.481-0.321-0.933-0.508-1.519-0.563-1.761-0.371-0.051-0.758-0.145-1.16-0.278-0.773-0.242-1.156-0.519-1.156-0.84 0-1.734-5.016-3.722-15.043-5.961 1.652 2.055 3.48 3.575 5.48 4.559 0.774 0.375 1.614 0.734 2.52 1.082l0.883 0.359c1.332 0.426 3.613 1.2 6.84 2.321-7.68-1.199-11.79-1.883-12.321-2.043-0.508-0.371-1.586-0.906-3.242-1.598-1.387-0.558-2.371-1.105-2.961-1.641-0.637-0.718-1.266-1.375-1.879-1.96 0.028 4 0.16 6.148 0.403 6.441 0.105 0.16 0.57 0.519 1.398 1.082 0.988 0.691 2 1.559 3.039 2.598 0.453 0.453 0.707 1.933 0.762 4.441 0.027 2.078-0.039 3.492-0.199 4.238 0.718-1.707 3.144-2.718 7.277-3.039 2.109-0.16 4.281-0.144 6.519 0.039 0.961 0 1.508 0.336 1.641 1 0.215 1.254 0.695 2.321 1.441 3.2 0.532 0.64 1.243 1.043 2.122 1.203 0.503 0.078 1.226 0.105 2.16 0.078 1.57 0.105 2.359 1.336 2.359 3.679 0 2.348-0.055 3.95-0.16 4.801 1.519-2.64 2.398-4.707 2.641-6.199 0.132-0.801 0.105-1.508-0.082-2.121zm-42.36 32.402 1.117-0.242v-1.598c-0.023-0.109-0.211-0.203-0.558-0.281l-0.559 0.121c-0.055 0.692-0.055 1.36 0 2zm-3.24-21.16c-2.777 1.25-4.27 1.918-4.484 2-0.184 0.211-1.067 0.973-2.637 2.277 4.558-1.597 7.078-2.464 7.558-2.597h0.039c0.696-0.028 2.243-0.281 4.641-0.762 2.055-0.426 5.133-0.641 9.238-0.641 0.535 0 3.336 0.536 8.403 1.602l-2.879-1.16c-1.707-0.801-3.707-1.453-6-1.961-1.629-0.344-2.828-0.52-3.602-0.52h-0.359c-2.375 0-4.106 0.149-5.199 0.442-2.879 0.824-4.453 1.265-4.719 1.32zm22.758 7.117c-0.055 0-0.11-0.011-0.16-0.039h-0.559c0.234 0.028 0.477 0.039 0.719 0.039zm3.32-1.519c-0.453 0.801-1.027 1.297-1.719 1.48 0.614-0.027 1.184-0.093 1.719-0.199-0.027-0.078-0.027-0.48 0-1.199v-0.082zm-17-38.797c0 1.703-0.68 3.476-2.039 5.316-1.359 1.817-2.039 3.547-2.039 5.2 0 0.589 0.238 1.441 0.719 2.562 0.453 0.984 0.679 1.52 0.679 1.598 0 0.402-0.132 0.707-0.398 0.922-0.375 0.187-0.645 0.359-0.801 0.519 2.664 0.188 4.133-0.719 4.399-2.719 0.16-1.015 0.039-2.226-0.36-3.64 0-0.055 0.32-0.696 0.961-1.922 0.641-1.305 0.957-2.199 0.957-2.68 0-1.117-0.238-2.078-0.719-2.879-0.265-0.453-0.718-1.211-1.359-2.277zm-13.398 16.437-4.043-0.16c2.875 0.879 5.812 1.637 8.82 2.282-0.012-0.008-0.02-0.024-0.02-0.04-0.453-0.535-1.011-1-1.679-1.402-0.403-0.023-0.934-0.105-1.602-0.238-0.637-0.16-1.133-0.309-1.476-0.442zm-21.204 11.481 0.204-1.16c0.05 0.293 0.039 0.535-0.043 0.718-0.106 0.215-0.051 0.387 0.16 0.524l0.601 0.117 0.559 0.16 0.043-1.238c0.023-2.535 0.199-5 0.519-7.402-0.027-1.411-0.988-2.825-2.882-4.239-1.438-1.093-2.774-1.882-4-2.359-1.145-0.375-1.957-0.668-2.438-0.879-1.387-0.617-3.266-2.988-5.641-7.121v2.039c-1.308-1.762-2.949-3-4.921-3.719-1.465-0.558-2.2-1.175-2.2-1.84 0-0.64 0.188-1.453 0.563-2.441 0.371-1.012 0.586-2.359 0.637-4.039 0.961-0.133 2.015 0.691 3.16 2.48 0.695 1.094 1.574 2.868 2.64 5.321l0.282-2.84c0.16-0.988 0.281-2.387 0.359-4.203l-0.078-1.321c-0.508-0.664-1.067-1.171-1.684-1.515-0.691-0.32-1.226-0.602-1.597-0.844-1.387-0.879-2.907-3.09-4.563-6.641-0.051-0.21-0.133-0.359-0.238-0.437-0.133-0.082-0.266-0.094-0.399-0.039-0.136 0.078-0.226 0.199-0.281 0.359-0.055 0.133-0.082 0.25-0.082 0.36v0.117l-0.117 0.84-0.52 2.601c0.051 0.586 0.172 1.215 0.36 1.883 0.133 0.449 0.238 0.758 0.32 0.918l0.481 0.918c0.371 1.387 0.16 2.563-0.641 3.52-0.988 1.199-1.481 2.75-1.481 4.64 0 1.574 0.348 2.559 1.04 2.961 1.839 1.067 3.093 1.934 3.761 2.598-0.16 0.082-0.269 0.16-0.32 0.242l-0.039 0.121-1.442 0.039c-3.519-0.402-5.546-0.601-6.082-0.601-1.253 0-2.503 0.043-3.757 0.121h-0.039l-3.043 0.039c-1.84 0.242-3 0.453-3.481 0.64-0.476 0.243-1.144 0.493-2 0.762 1.203-0.133 2.496-0.203 3.883-0.203 2 0 3.641 0.055 4.918 0.16 3.226 0.242 5.652 0.75 7.281 1.524l3.84 0.355 1 0.086c0.906-0.16 2.293 0 4.16 0.476 2.106 0.563 4.094 1.403 5.961 2.524 5.117 2.984 7.641 6.879 7.559 11.68-0.348-0.696-0.707-1.215-1.078-1.563-0.11-0.133-0.414-0.359-0.922-0.68 0.48 1.067 0.718 2.055 0.718 2.961 0 0.801-0.238 1.493-0.718 2.078l1.718 0.442zm20.56-30.039c-2.883 0.801-5.039 1.426-6.481 1.879-2.558 0.773-6.535 2.789-11.921 6.043l-0.161 0.16 1.364-0.563c1.679-1.254 4.316-2.386 7.918-3.398 3.679-1.039 7.066-1.563 10.16-1.563 4.668 0.028 7.613-1.558 8.84-4.757 0.215-0.536 0.558-1.879 1.039-4.039 0.347-1.575 0.801-2.696 1.359-3.364 0.348 0.11 0.656 0.27 0.922 0.485 0-0.403-0.254-0.75-0.762-1.043-0.531-0.293-1.16-0.442-1.879-0.442-0.453 1.949-1.148 3.43-2.082 4.442-1.117 0.961-1.972 1.785-2.558 2.48-0.321 0.453-0.508 0.707-0.559 0.762-0.082 0.105-0.359 0.371-0.84 0.801l-0.441 0.675 0.32-0.597-4.238 2.039zm66.277-3.082c2.028-0.746 3.364-1.266 4-1.559 2.297-1.012 3.684-1.922 4.16-2.719 0.348-0.585 0.629-2.16 0.84-4.718 0.137-1.762 0.203-3.254 0.203-4.485-0.269 1.387-0.519 2.684-0.761 3.883-0.481 2.32-1.039 3.801-1.68 4.442-0.668 0.664-1.773 1.546-3.32 2.636-1.895 1.336-3.039 2.176-3.442 2.52zm-20.277-20.84 2.961 0.719 5.437 0.082c3.254 0 5.895-0.172 7.918-0.52 1.95-0.347 2.922-0.773 2.922-1.281 0-0.773-0.359-1.664-1.078-2.68-0.961-1.414-2.32-2.465-4.082-3.16l-17.12-0.078c-1.039 0.293-1.613 0.477-1.719 0.559-0.586 0.375-0.894 1.078-0.922 2.117l-0.199 1c0.242 0.297 0.387 0.441 0.442 0.441l2.121-0.758c1.437-0.507 2.32-0.773 2.636-0.8 2.43-0.266 5.457-0.399 9.082-0.399 4.106 0 6.293 0.879 6.563 2.637-0.402 0-0.602 0.055-0.602 0.16-1.468 0.133-3.988 0.293-7.558 0.48-3.176 0.161-5.055 0.243-5.641 0.243l-4.199-0.082 3.039 1.32zm-9.32-8.117-0.2 0.039c0.184 0.586 0.907 1.64 2.161 3.16 0.503 0.613 0.918 1.094 1.238 1.437-1.574-2.316-2.641-3.863-3.199-4.636zm-24.321 18.16 1.918 0.598c-0.504-0.481-0.8-0.747-0.879-0.801-0.238-0.106-0.586-0.039-1.039 0.203zm-8.761 70.519c0.402-0.75 0.601-1.347 0.601-1.8 0-1.2-0.133-2.121-0.398-2.762-0.188-0.398-0.574-1.172-1.16-2.32-0.989-0.321-2.188-0.879-3.602-1.68-1.227-0.664-2.441-1.133-3.641-1.398 0.375 0.667 0.961 1.441 1.762 2.32 0.641 0.906 0.957 2.172 0.957 3.801 0 0.347-0.25 1.785-0.758 4.32l1 0.078c0.774 0 1.442 0.188 2 0.559 0.532 0.402 0.801 0.882 0.801 1.441l1.758-1.602h-0.801l1.481-0.957zm-2.239-10.242-2.679-1.597-0.762-0.602c0 0.828 0.414 1.535 1.242 2.121 0.801 0.586 1.774 0.879 2.918 0.879l-0.719-0.801zm-7.601-5.597h0.761c-0.269-3.254-0.773-5.375-1.519-6.364-0.801-0.984-2.359-1.476-4.68-1.476l-2.082 0.117 2.68 2.121-0.68-0.039c0.641 0.211 1.254 0.492 1.84 0.84 1.199 0.453 2.039 1.32 2.52 2.597 0.507 1.336 0.894 2.067 1.16 2.204zm-47.278-34.243-11.16-7.757-3-0.082c0.934 0.32 1.891 0.707 2.879 1.16 1.094 0.508 2.094 1.265 3 2.281 1.547 1.734 2.36 2.641 2.442 2.719l6.679 3.519-0.84-1.84zm-1.722 4.641c1.176-0.215 2.176-0.332 3-0.359-3.25-0.133-5.973-0.121-8.16 0.039l-3.118 1.402 2.399-0.32h0.082l0.359-0.039h0.078l0.243-0.043h0.078l5.039-0.68zm23.082 4.801c-0.723-0.133-1.496-0.227-2.321-0.281-0.558 0.027-1.507 0.015-2.839-0.039 1.464 0.265 3.187 0.371 5.16 0.32zm1.558 0.398c1.094 0.508 2.133 1.067 3.121 1.68l0.161-0.277c-0.215-0.11-0.801-0.364-1.762-0.762-0.906-0.399-1.414-0.613-1.52-0.641zm4.442 2.602c0.773 0.504 1.664 1.558 2.679 3.16-0.132-0.242-0.707-1.148-1.718-2.723l-0.962-0.437zm-43.161-22.879c-4.719 0.719-7.52 1.316-8.403 1.797l3.321 0.242 2.16-0.961c1.414-0.613 2.386-0.973 2.922-1.078zm13.879 5.879-0.282-0.602-0.437-0.277 0.719 0.879zm8.558-26.68c-0.637-0.562-2.023-1.055-4.156-1.48-2.375-0.481-3.59-0.735-3.641-0.762-5.254 0.32-9.773-0.172-13.562-1.481-2.907-1.359-4.664-2.05-5.278-2.078-0.054 0.028-0.187 0.481-0.402 1.36 0.32 0.879 0.574 2.84 0.762 5.879 0.16 3.015 0.199 6.214 0.121 9.601l-1.082-3c-0.028 4.719-0.453 7.735-1.281 9.039-0.559 0.719-1 1.309-1.321 1.762-0.613 0.852-1.144 1.957-1.597 3.32l1.039-0.761c1.601-1.414 3.132-4.254 4.601-8.52 1.438-4.187 2.16-7.828 2.16-10.918 0-0.137-0.121-0.562-0.363-1.281-0.238-0.774-0.465-1.363-0.68-1.762 0.668-0.105 1.547-0.187 2.641-0.238 0.961-0.082 1.668-0.121 2.121-0.121 0.535 0 2.735 0.375 6.602 1.121 3.84 0.746 6.039 1.117 6.597 1.117 0.508 0 1.426-0.078 2.762-0.238 1.574-0.16 2.891-0.348 3.957-0.559zm-29.316-0.281c0-0.027-0.121-0.559-0.364-1.602-0.343-1.304-0.812-2.613-1.398-3.918-1.094-0.906-3.625-1.293-7.602-1.16-4.238 0.321-6.863 0.469-7.878 0.442 1.226 0.371 4.039 1.597 8.441 3.679 4.027 1.918 6.199 2.879 6.519 2.879 0.532 0 1.293-0.105 2.282-0.32zm59.957 12.242-0.957-2.043c-0.457-0.746-0.762-1.48-0.922-2.199-0.293-0.613-0.641-1.469-1.039-2.559l0.121 1.68c-0.082-0.375-0.524-1.723-1.32-4.039-0.508-1.441-0.762-3-0.762-4.684 0-1.867 0.215-3.105 0.64-3.718 0.532-0.747 0.825-1.305 0.879-1.68-0.53-0.188-1.68-0.082-3.438 0.32-2.563 0.586-5.867 0.891-9.922 0.918-1.812 1.094-4.012 1.906-6.602 2.442-1.277 0.265-1.918 1.105-1.918 2.519 0.188 2.348 0.282 3.828 0.282 4.442 1.066-2.563 2.613-4.563 4.636-6 2.27-1.602 5.016-2.403 8.243-2.403 3.894 0 5.839 1.242 5.839 3.719l-0.039 0.723c-0.109 0.906-0.16 1.625-0.16 2.16 0 1.918 0.864 4.172 2.598 6.758 1.547 2.293 2.84 3.668 3.883 4.121l-0.043-0.477zm-25.68-1.203c0.266-1.066 0.402-2.453 0.402-4.16l-0.32 0.762-0.519-0.321c0.238 0.535 0.386 1.774 0.437 3.719z" />
      <path id="path22" style="fill-rule:evenodd;fill:#635b52" d="m197.92 21.241-0.121-0.242-0.36 0.718c0 1.227-0.066 2.723-0.203 4.481-0.211 2.562-0.492 4.133-0.84 4.719-0.476 0.8-1.863 1.71-4.16 2.722-0.636 0.293-1.972 0.813-4 1.559-1.25 0.562-2.449 1.215-3.597 1.961-0.188 0.16-0.563 0.601-1.121 1.32-0.614 0.773-0.973 1.305-1.079 1.598v0.203c0.985-0.508 3.918-1.774 8.797-3.801 4.453-2.242 6.707-4.492 6.762-6.762 0.055-1.066 0.199-1.812 0.441-2.238 1.067-0.746 2.106-1.719 3.118-2.918 0.269-0.32 1.203-0.484 2.8-0.484 0.801 0 1.375 0.187 1.719 0.562 0.188 0.211 0.469 0.774 0.844 1.68 0.211 0.531 0.558 0.918 1.039 1.16 0.48 0.266 0.918 0.867 1.316 1.801 0.375 1.012 0.442 2.051 0.203 3.117-0.347 0.215-0.8 0.43-1.359 0.641-0.535 0.187-0.922 0.281-1.16 0.281-0.426 0-0.973 0.055-1.641 0.16-0.718 0.133-1.199 0.266-1.441 0.398 0.375 0.133 1.226 0.243 2.559 0.321 0.695 0.027 1.468 0.054 2.32 0.082 0.133 0.023 0.574 0.172 1.32 0.437 0.746 0.293 1.199 0.496 1.36 0.602l0.199-0.602c-0.449-3.679-0.946-6.879-1.477-9.597l1.797-0.203c3.336 0 5.867 0.589 7.602 1.761 1.464 1.016 2.293 2.387 2.48 4.121l0.039-0.839c0-3.977-3.426-6.387-10.281-7.243-7.625-0.293-12.25-0.785-13.875-1.48v0.004zm-0.242-1.364v-0.039c0.109-0.961 0.16-1.519 0.16-1.679 0-4.426-1.16-7.973-3.481-10.641-1.707-1.973-3.281-2.957-4.718-2.957-2.106 0.133-3.36 0.199-3.762 0.199-14.664 0.024-23.465 0.239-26.399 0.641-3.625 1.57-5.492 2.383-5.601 2.437l-2.36 1.602c0.132 0.187 0.402 0.719 0.8 1.598 0.481-0.371 1.653-1.371 3.52-3 1.199-1.039 2.066-1.625 2.601-1.758l0.2-0.039c1.304 0 2.464 0.144 3.48 0.437 1.625 0.453 2.559 0.707 2.801 0.762l17.117 0.078c3.094-0.078 5.441 0.496 7.039 1.723 1.231 0.906 1.844 1.972 1.844 3.199-0.133 1.812-0.16 2.84-0.082 3.078 1.199 0.133 1.812 0.199 1.84 0.199 0.718 0.11 1.226 0.254 1.519 0.442 0.028-0.078 0.121-0.282 0.281-0.598 0.055-0.082 0.082-0.281 0.082-0.601 0-0.614-0.242-1.493-0.722-2.641l0.64 0.32 0.559 0.602c0.828 1.011 1.469 2.758 1.922 5.238l-0.121 0.68h-1.84l0.199 0.121-1.117-0.199c-1.016-0.774-2.293-1.43-3.84-1.961-2.988-1.016-7-1.16-12.043-0.442-0.586-0.078-1.199-0.117-1.84-0.117-0.636 0-1.16 0.066-1.558 0.199l-0.321 0.2c4.028 1.226 10.559 2.425 19.602 3.601 1.387-0.055 2.414-0.187 3.078-0.402l0.481 0.043v-0.242l0.039-0.079v-0.004zm-51.078 39.84c0.16-0.746 0.226-2.156 0.199-4.238-0.055-2.508-0.309-3.984-0.762-4.441-1.04-1.039-2.05-1.907-3.04-2.598-0.828-0.563-1.293-0.922-1.398-1.082-0.243-0.293-0.375-2.441-0.403-6.441 0-0.266-0.172-2.477-0.519-6.637-0.348-4-0.52-6.293-0.52-6.883 0-2.211 0.52-4.547 1.563-7 0.531-1.281 1.222-2.824 2.078-4.637-1.574 0.317-2.625 0.477-3.16 0.477-0.559 0-1.547-0.078-2.961-0.238-1.68-0.161-2.985-0.348-3.918-0.559l0.039-1.043v-0.281l-0.039-0.317c-0.16 0.399-0.348 1.118-0.559 2.161-0.269 1.304-0.363 2.277-0.281 2.917 0 2.829-0.559 4.989-1.68 6.481-1.336 1.227-2.215 2.16-2.64 2.801-0.774 0.16-2.243 0.187-4.403 0.078l0.363 0.121c0.614 0.133 1.333 0.266 2.161 0.402 0.504 0.184 0.757 0.598 0.757 1.239 0 0.132-0.187 0.613-0.558 1.441-0.402 0.957-0.801 1.707-1.199 2.238-0.43 0.453-1.762 1.414-4 2.883-0.618 0.399-1.149 0.758-1.602 1.078-0.746 0.641-1.629 1.133-2.641 1.481l-1.082 0.242 0.723-0.082 0.32-0.039c1.547-0.27 3.051-0.59 4.52-0.961l4.238-2.039 0.121-0.082c0.481-0.426 0.758-0.692 0.84-0.801 0.051-0.051 0.238-0.305 0.559-0.758 1.734-4.293 3.281-6.601 4.64-6.922 0.719 0 1.348 0.149 1.879 0.442 0.508 0.293 0.762 0.64 0.762 1.039-0.027 0.668-0.121 1.586-0.281 2.761-0.184 1.145-0.281 1.825-0.281 2.04 0.773 3.519 1.296 5.667 1.562 6.441 0.641 1.066 1.094 1.824 1.359 2.277 0.481 0.801 0.719 1.762 0.719 2.883 0 0.481-0.32 1.371-0.957 2.68-0.644 1.226-0.961 1.867-0.961 1.922 0.399 1.41 0.52 2.625 0.36 3.636-0.266 2-1.735 2.907-4.399 2.723l-1.644-0.121c-2.77-0.215-4.797-0.32-6.079-0.32-0.8 0-1.586 0.121-2.359 0.359l0.559 0.402c0.347 0.133 0.84 0.278 1.48 0.438 0.668 0.133 1.199 0.215 1.602 0.242 0.664 0.398 1.226 0.863 1.679 1.398 0 0.02 0.008 0.032 0.02 0.04h0.019c0.293 0.375 0.508 0.562 0.641 0.562 0.559 0 1.106-0.027 1.641-0.082 2.586-0.266 4.664-1.172 6.238-2.719 1.203-1.176 1.867-1.812 2-1.922 0.801-0.586 1.746-0.879 2.84-0.879 1.496 0 2.519 0.161 3.082 0.481 0.851 0.453 1.281 1.414 1.281 2.879-0.32 2.586-0.508 4.347-0.562 5.281l0.121 0.801c0.293-0.668 0.933-1.883 1.922-3.645zm-71.522-46.117l0.762 1.238 2.558 4.52c0.028 0.082 0.43 0.508 1.204 1.281l0.519 0.321 0.32-0.762c0.266-0.957 0.371-2.039 0.321-3.238 0-0.614-0.094-2.094-0.282-4.442 0-1.414 0.641-2.254 1.918-2.519 2.59-0.532 4.79-1.348 6.602-2.438 0.105-0.055 1.293-0.828 3.559-2.32 0.64-0.43 2.148-0.641 4.519-0.641 1.281 0 2.281 0.094 3 0.277 1.043 0.27 1.801 0.75 2.281 1.442-0.054 0.375-0.347 0.933-0.879 1.68-0.425 0.613-0.64 1.855-0.64 3.718 0 1.684 0.254 3.243 0.762 4.684 0.796 2.316 1.238 3.664 1.32 4.039l-0.121-1.68c-0.133-1.972-0.227-3.949-0.281-5.922-0.106-4.265 0.507-6.933 1.839-8 0.321-0.265 1.414-0.464 3.282-0.597 2.078-0.16 3.414-0.574 4-1.242 0.531-0.614 1.519-0.918 2.961-0.918 1.171 0 2.691 0.238 4.558 0.718 1.84 0.508 3.215 1.028 4.117 1.563 0.828 0.476 2.094 0.863 3.801 1.156 1.336 0.43 2 1.43 2 3 0 1.387-0.039 2.27-0.117 2.641-0.16 0.906-0.602 1.359-1.32 1.359-0.243 0-0.629-0.183-1.161-0.558-0.691-0.454-1.082-0.946-1.16-1.481v0.16c0.133 1.922 0.348 3.801 0.641 5.641 0.078 0 0.601 0.16 1.559 0.48 0.882 0.293 1.535 0.442 1.96 0.442 0.532 0 1-0.149 1.399-0.442 0.48-0.347 1.16-1.082 2.043-2.199l0.84-1.043c0.105-0.957-0.336-2.812-1.321-5.558-0.879-2.481-1.507-3.961-1.879-4.442-1.281-1.012-3-1.652-5.16-1.918-2.054-0.055-3.242-0.082-3.562-0.082l-9.16-1.117c-2.453-0.27-4.184-0.402-5.2-0.402-5.546 0-10.64 1.148-15.281 3.441-4.773 2.906-8.437 4.988-11 6.238l-0.519 0.282c-0.266 0.132-0.692 0.335-1.278 0.601-0.668 0.266-1.093 0.414-1.281 0.441-0.719 0.161-1.426 0.266-2.121 0.317-3.277-1.492-6.398-2.867-9.359-4.117-5.762-2.426-10.399-3.707-13.918-3.84-2.641-0.11-6.762-0.094-12.364 0.039-6.746 0.16-11.879 0.266-15.398 0.32-0.586 0.078-1.68 0.387-3.281 0.918h0.043c0.558-0.027 1.172 0 1.839 0.082 0.719 0.106 1.239 0.227 1.559 0.36 0.613 0.238 1.133 0.558 1.559 0.961 0.242 0.21 0.496 0.476 0.761 0.796l1.079 0.243c1.015 0.027 3.64-0.121 7.882-0.442 3.973-0.133 6.504 0.254 7.598 1.16 0.746 0.586 1.535 2.039 2.359 4.36 0.883 2.426 1.309 4.492 1.282 6.203l0.441-8.281-0.043-0.922c-0.051-0.586-0.172-1.746-0.359-3.481 0-0.64 1.043-0.961 3.121-0.961 3.84 0 6.719 0.59 8.64 1.762 0.614 0.375 1.625 1.066 3.039 2.082 1.52 1.039 3.122 1.973 4.801 2.801 0.051 0.023 1.266 0.277 3.641 0.758 2.133 0.425 3.519 0.918 4.156 1.48zm-66.68-3.48 0.243 0.398c0.32 0.563 0.519 0.988 0.597 1.281l2.442-2.48 0.558-0.602c-0.293 0.11-0.558 0.203-0.797 0.282-1.921 0.695-2.933 1.066-3.043 1.121zm46.122 40.441c-0.665 0.266-1.305 0.559-1.918 0.879l0.16 0.199c-0.43 0.266-0.867 0.613-1.321 1.039 0.985-0.586 1.625-0.984 1.918-1.199 0.188-0.16 0.575-0.465 1.161-0.918zm136.88 13.52c-1.226-0.028-3.011 0-5.359 0.078-2.504 0.082-3.961 0.121-4.359 0.121-0.801 0-2.254-0.16-4.36-0.481l-2.961-0.441c-0.504 0-0.89 0.586-1.16 1.762-0.476 2.16-0.785 3.425-0.918 3.8l0.641-0.8c0.801-0.719 2.215-1.348 4.238-1.879 1.949-0.508 3.719-0.762 5.32-0.762 3.84 0 5.895 4.707 6.161 14.121l0.558-3c0.215-1.254 0.547-3.441 1-6.562 0.453-2.797 0.856-4.786 1.199-5.957zm-60.117 30.437-1.121 0.242c-0.508 0.133-0.894 0.293-1.16 0.481l-0.199 0.238c0.105 0.082 1.027 0.492 2.758 1.238 1.496 0.641 2.441 1.243 2.839 1.801-0.746-1.945-1.25-3.078-1.519-3.398-0.238-0.293-0.774-0.493-1.598-0.602zm-6.402 1.359c2.453 0 3.828-0.636 4.121-1.917 0.16-0.696 0.32-1.122 0.48-1.282 0.348-0.398 1.055-0.597 2.122-0.597 0.453 0 1.039 0.078 1.757 0.238 0.934 0.215 1.586 0.48 1.961 0.801-0.668-1.309-1.48-2.375-2.441-3.2-0.984-0.8-2.574-1.75-4.758-2.839-0.43-0.297-1.043-0.602-1.844-0.922-0.851-0.348-1.597-0.574-2.238-0.68-1.148 0-2.117-0.293-2.918-0.879-0.828-0.586-1.242-1.293-1.242-2.121l-0.238-2.199-1.719-0.039-2.242 0.039c-0.453 0-0.84 0.199-1.16 0.597-0.348 0.403-0.52 0.883-0.52 1.442l-2.238 2.32 2.84 0.199 1.437 0.039 1.32 0.083c1.203 0.265 2.414 0.734 3.641 1.398 1.414 0.801 2.613 1.359 3.602 1.68 1.546 1.281 2.32 2.734 2.32 4.363 0 0.719-0.453 1.559-1.36 2.519l-1.48 0.957h0.797zm12.32-24.039c0.989-0.054 2.348-0.574 4.082-1.558-0.082-0.082-0.386-0.293-0.922-0.641-0.558-0.347-0.918-0.547-1.078-0.601-0.426-0.133-1.293-0.2-2.601-0.2-0.957 0.055-1.985 0.227-3.078 0.52-1.309 0.375-2.497 0.762-3.563 1.16-1.68 0.774-2.68 1.266-3 1.481-0.371 0.242-0.945 0.761-1.719 1.562l1.602 0.039c0.266-0.055 1.84-0.496 4.719-1.32 1.093-0.293 2.824-0.442 5.199-0.442h0.359zm16.68-26.359c-2.746-0.984-5.039-2.094-6.879-3.32-1.492-0.985-2.465-1.481-2.922-1.481l0.32 1.121c0.375 0.961 0.922 1.868 1.641 2.719 1.652 0.695 2.734 1.227 3.242 1.602 0.531 0.16 4.641 0.84 12.321 2.039-3.227-1.121-5.508-1.895-6.84-2.321l-0.883-0.359zm-52.481 22.84c-0.105 0.375-0.21 0.668-0.32 0.879-0.156 0.347-0.476 0.722-0.957 1.121-0.242 0.133-0.547 0.332-0.922 0.601-0.691 0.504-1.734 1.415-3.121 2.719l-0.879 0.801c0.746-0.402 1.586-0.613 2.52-0.641l1.441 0.039c0.16 0 0.652-0.093 1.481-0.277 0.906-0.187 2.679-0.309 5.32-0.363l4.238 0.242 0.68 0.039-2.68-2.121-1.121-0.52-0.476-0.199-2.122-0.519c-0.375-0.082-1.292-0.149-2.761-0.2v-1.519c-0.211-0.137-0.266-0.309-0.16-0.524 0.082-0.183 0.093-0.425 0.043-0.718l-0.204 1.16zm43.161-4.961-0.079 1.32 0.801-0.801c-0.133 0.11-0.269 0.055-0.402-0.16l-0.199-0.359h-0.121zm-8.321-38.359-1.918-0.598-1.242-0.363-0.277-0.039c1.277-0.907 2.414-1.735 3.398-2.481 0.426-0.293 0.774-0.441 1.039-0.441 0.403 0 0.735 0.226 1 0.683 0.242 0.399 0.375 0.918 0.403 1.559v2.48l-2.403-0.8zm-44.718 52.718-0.122 0.121 0.922-0.64 2.16-2.199-0.601 0.48c-0.957 0.773-1.746 1.52-2.359 2.238zm-6.881-23.757c1.332 0.05 2.281 0.066 2.839 0.039 0.508-0.188 0.973-0.493 1.399-0.918-0.293-0.536-0.625-0.961-1-1.282-0.691-0.586-1.984-1.054-3.879-1.398l-1-0.082c-0.879 0-1.547-0.016-2-0.039-0.801-0.028-1.414-0.133-1.84-0.32-1.629-0.774-4.055-1.282-7.281-1.52-1.277-0.109-2.918-0.16-4.918-0.16-1.387 0-2.68 0.066-3.883 0.199l-4.437 0.641c-0.403 0-1.161 0.215-2.282 0.64-0.961 0.371-1.574 0.641-1.839 0.801l2.48-0.723c1.465-0.265 2.988-0.492 4.559-0.679 2.187-0.16 4.906-0.172 8.16-0.039 0.668 0.082 1.761 0.492 3.281 1.242 1.652 0.824 2.734 1.305 3.238 1.437l7.723 2.082 0.68 0.079zm9.839 2.398c0 0.269 0.133 0.48 0.399 0.641 0.242 0.187 0.547 0.281 0.922 0.281l0.961 0.437 1.316 0.563c-0.344-1.281-0.613-2.082-0.797-2.403-0.187-0.292-0.519-0.437-1-0.437-0.613 0-1.16 0.211-1.64 0.641l-0.161 0.277zm-22.878-9.32h0.039c-0.106-0.211-0.934-1.332-2.481-3.36-1.519-2.027-2.398-3.16-2.64-3.398l-0.719-0.879c-0.934-1.094-1.989-2.43-3.16-4-0.375-0.484-0.774-0.801-1.2-0.961l-0.921-0.242c-3.918-0.399-6.508-0.332-7.758 0.203h-0.121c-0.536 0.105-1.508 0.465-2.922 1.078l-2.16 0.961-2.719 1 0.922-0.242c2.316-0.266 5.16-0.332 8.519-0.199l3 0.082 11.16 7.757 3.161 2.2z" />
      <path id="path24" style="fill-rule:evenodd;fill:#c0b7aa" d="m193 45.877c-4.027-0.585-6.574-1.25-7.641-2-0.773-0.558-1.718-0.839-2.839-0.839-1.547 0-4.133 0.839-7.758 2.523-4.137 2.078-7.016 3.516-8.641 4.316l1.199 0.602c0.028-0.027 1.387-0.801 4.078-2.32 2.989-1.52 5.227-2.293 6.723-2.321l1.117-0.078c-0.211 0.133-1.73 1.039-4.558 2.719-1.52 0.879-2.282 1.652-2.282 2.32 0 0.453 0.829 1.575 2.481 3.36 1.68 1.785 2.508 3.32 2.48 4.601-0.027 0.344-0.773 0.051-2.238-0.883-1.469-0.933-2.187-1.57-2.16-1.917 0-0.586-0.508-1.254-1.52-2 0 1.546 0.332 2.867 1 3.957 0.637 1.121 1.414 1.683 2.321 1.683l15.918 2.117 2.679 0.36 0.563 0.043c0.398 0 0.719-0.028 0.957-0.082-0.293-1.598-1.508-2.504-3.641-2.719-3.84-0.133-7.547-0.481-11.117-1.039v-2.082l0.039-0.559 2.078-0.121c1.071-0.078 2.176-0.238 3.321-0.48 1.441-0.239 3.015-0.84 4.718-1.801 1.735-0.957 2.723-1.797 2.961-2.52l0.082-0.156c0.293-1.148 0.414-2.695 0.36-4.644l-0.68-0.04zm-188.52-23.437-0.039 0.039 0.719 0.398c2.668 0.696 4.961 1.708 6.879 3.043 1.176 0.825 2.695 2.2 4.563 4.118 4.023 4.16 8.386 7.16 13.078 9 0.187 0.027 0.386 0.043 0.601 0.043l1.239 0.117c0.48 0.027 1.027 0.054 1.64 0.082 0.535 0.027 1.012 0.051 1.442 0.082l0.359 0.039c0.398 0 0.801 0.012 1.199 0.039 1.172 0 2.442-0.852 3.801-2.559 1.492-1.894 2.238-3.933 2.238-6.121 0-4.691-1.824-7.039-5.48-7.039-4.879 0.985-7.559 1.481-8.039 1.481-1.414 0-2.387-0.442-2.918-1.321-0.668-1.121-0.84-3.265-0.524-6.441-0.238-0.051-0.625-0.078-1.16-0.078-9.863 1.598-16.398 3.297-19.598 5.078zm45.442 26.559c2.023-0.266 3.371-0.575 4.039-0.918 0.746-0.403 1.117-1.043 1.117-1.922 0-2.426-1.09-3.641-3.277-3.641-1.309 0-2.696 0.121-4.16 0.359-1.387 0.297-2.254 0.469-2.602 0.524 0 0.023-0.027 0.09-0.078 0.199-0.082 0.106-0.121 0.317-0.121 0.641 0 0.078 0.281 0.492 0.84 1.238l-0.52 0.32h-0.039l4.801 3.2zm7.398 17.562 4.559 3.316c3.519 2.11 6.723 3.95 9.601 5.524l7.52 4.797c2.746-0.133 4.785-0.078 6.121 0.16 3.305-2.266 4.774-3.305 4.399-3.117l-0.161 0.078c0.453-0.348 1.243-0.879 2.36-1.602 0.906-0.691 1.441-1.41 1.601-2.156-5.199 3.383-9.027 5.078-11.48 5.078-1.762 0-2.828-0.855-3.199-2.558-0.586-2.723-1.2-4.496-1.84-5.321-0.668-0.855-2.403-1.789-5.199-2.8-2.61-0.985-4.516-1.477-5.723-1.481 0.215 0.004 0.266 0.164 0.16 0.481-0.16 0.507-0.227 0.839-0.199 1-2.188-1.282-3.828-2.747-4.918-4.399-0.91-1.363-1.363-2.695-1.363-4 0-2.187 0.773-3.641 2.32-4.363 0.855-0.399 2.215-0.598 4.082-0.598 3.598 0 6.453 0.492 8.559 1.481 2.105 1.011 4.668 1.519 7.679 1.519l4.602-0.121c-6.293-2.371-9.563-3.602-9.801-3.68-4.078-1.601-6.746-2.812-8-3.64-1.012-0.375-2.281-0.508-3.801-0.399l-3.359 0.399h-0.238l-0.243 0.039h-0.078l-0.359 0.043c-1.524 0.32-3.094 0.906-4.723 1.758-1.144 0.586-2.16 1.242-3.039 1.961-0.293 0.48-0.613 1.144-0.961 2-0.344 0.878-0.519 1.453-0.519 1.718l0.121 1.282c0.504 1.332 0.851 2.16 1.039 2.48 0.773 1.277 2.265 2.984 4.48 5.121zm46.239 22.637c0.668-0.16 1.453-0.348 2.363-0.559 0.664-0.16 1.398-0.332 2.199-0.519 3.68-0.856 5.84-1.95 6.481-3.282l-2.84-0.199 2.238-2.32c-0.559-0.641-1.934-1.359-4.121-2.16-2.453-0.907-4.574-1.36-6.359-1.36-0.801 0-2.52 0.52-5.161 1.559-2.64 1.066-4.867 1.602-6.679 1.602-0.879 0-1.547 0.093-2 0.281-0.535 0.238-0.961 0.664-1.282 1.277l-0.039 0.043 0.039 0.316c0.215 1.895 0.817 3.684 1.801 5.364 0.961 1.679 2.039 2.785 3.242 3.32 2.559 0.211 4.305-0.043 5.239-0.762 0.535-0.398 1.265-1.039 2.199-1.922 0.055-0.023 0.949-0.25 2.68-0.679zm-5.758 15.203c-0.403 0.211-0.774 0.449-1.121 0.719-0.133 0.105-0.266 0.226-0.399 0.359h-0.043l0.203 0.16c0.266 0.348 0.52 0.625 0.758 0.84 0.906 0.988 2.668 1.773 5.281 2.359 2.508 0.536 5.442 0.801 8.801 0.801l6.281-0.16c3.305-0.078 5.516-0.84 6.637-2.281 0.055-0.051 0.696-0.184 1.922-0.399 1.172-0.16 1.758-0.32 1.758-0.48 0.027-0.078 0.199-0.547 0.519-1.399 0.321-0.882 0.481-1.468 0.481-1.761 0-1.254-0.957-1.879-2.879-1.879-1.465 0-3.039 0.238-4.719 0.719-2.215 0.64-4.613 1.121-7.203 1.441 0.32-0.773 1.027-1.629 2.121-2.563 0.586-0.476 1.227-0.972 1.922-1.476l0.277-0.32c-1.679 0.078-3.664 0.48-5.957 1.199-2.054 0.64-3.402 1.215-4.043 1.719-0.476 0.375-2.117 0.628-4.918 0.761-2.105 0.078-4 0.625-5.679 1.641zm22.519-23.602-0.199 0.078c-0.055 0.028-0.082 0.204-0.082 0.524 0 0.559 0.199 1.117 0.602 1.68l2.679 1.597c-0.16-0.211-0.386-0.57-0.679-1.078-0.348-0.586-0.563-1.027-0.641-1.32 0.211-0.16 0.453-0.36 0.719-0.602 0.265-0.16 0.613-0.238 1.039-0.238 0.613 0 1.176 0.277 1.68 0.84 0.722 0.828 2.347 1.613 4.882 2.359 1.84 0.508 3.641 1.227 5.399 2.16 2.828 1.493 4.652 3.133 5.48 4.918 0.563 0.16 1.11 0.508 1.641 1.043 0.558 0.504 0.906 1 1.039 1.481 0.586-0.028 2.082 0.023 4.48 0.16 2.43 0 6.133-0.242 11.121-0.723 6.801-0.664 12.082-1.117 15.84-1.359 0.082-0.188 0.188-0.426 0.321-0.719 0.187-0.508 0.332-0.973 0.437-1.402l0.121-2.719c0-2.828-1.597-4.359-4.801-4.602-2.183-0.023-3.933-0.066-5.238-0.117-2.453-0.109-4.613-0.386-6.48-0.84 4.027 1.84 6.32 3.293 6.879 4.36l-0.321 1c-1.945 0.347-3.398 0.961-4.359 1.84-0.641 0.586-2.641 0.879-6 0.879-0.824 0-2.106-0.039-3.84-0.122-2.371-0.078-4.105-0.183-5.199-0.316l-0.68-0.16c0.348-0.215 1.746-0.535 4.199-0.961 2.403-0.402 3.868-0.801 4.403-1.199 0.426-0.348 0.972-1.254 1.636-2.723 0.641-1.437 0.961-2.437 0.961-3-0.398 0.242-1.691 1.176-3.879 2.801-1.441 1.066-2.535 1.68-3.281 1.84-3.679 0.801-6.32 1.199-7.922 1.199-0.132 0-0.382-0.117-0.757-0.359-0.399-0.266-0.735-0.547-1-0.84 0.878-0.481 2.292-0.907 4.242-1.282l-1.043-1.316c0-0.617 0.48-1.59 1.441-2.922 0.934-1.359 1.399-2.375 1.399-3.039 0-1.199-0.586-2.055-1.758-2.562-0.906-0.399-2.266-0.598-4.082-0.598-6.239 0-11.442 1-15.598 3-1.309 0.641-2.469 1.371-3.48 2.199-0.801 0.696-1.243 1.078-1.321 1.16zm4.961-8.601 3.16-1.238c1.946-0.747 2.985-1.149 3.118-1.2 0.027 0 0.707-0.133 2.043-0.402 1.089-0.293 2.117-0.465 3.078-0.52l1.519-0.519c-0.398-1.387-1.984-2.641-4.758-3.758-2.562-1.043-5.015-1.562-7.363-1.562-0.664 0-1.492 0.16-2.476 0.48-1.016 0.348-2.524 0.52-4.524 0.52-5.277-1.039-8.519-1.559-9.719-1.559-2.347 0-3.839 0.293-4.48 0.879-0.399 0.348-0.598 1.121-0.598 2.32 0.133 2 0.199 3.492 0.199 4.481l2.122 0.519 2.117-0.039c2.722-0.055 4.894-0.039 6.519 0.039 0.723 0.106 1.387 0.238 2 0.399 1.336 0.347 3.215 0.933 5.641 1.761 0.613 0 1.414-0.199 2.402-0.601zm32.117 8.242-0.078-0.961c0.028-0.051 0.039-0.094 0.039-0.121 0-0.078-0.16-0.117-0.48-0.117-0.16 0-0.387 0.133-0.68 0.398-0.508 0.481-1.011 1.227-1.519 2.238l2.718-1.437zm-61.521-35.761c1.976 0.188 3.762 0.188 5.359 0 3.442-1.093 5.242-1.64 5.403-1.64 0.347 0 1.785-0.465 4.32-1.399 1.25-0.453 2.48-0.906 3.68-1.359l2.48-1-0.719 0.082 1.078-0.242c1.016-0.348 1.895-0.84 2.641-1.481 0.535-0.48 0.988-1.054 1.359-1.719 0.559-0.96 0.84-1.816 0.84-2.558 0-1.094-0.879-2.414-2.64-3.961-1.707-1.496-2.52-3.121-2.438-4.883 0.211-3.945-1.054-5.918-3.801-5.918-0.265 0-1.441 0.414-3.519 1.238-2.027 0.856-3.067 1.282-3.121 1.282-0.321 0-0.653-0.133-1-0.399l-0.399-0.359-1.761-1.481 0.199 2.438c0.16 0.723 0.469 1.453 0.922 2.199 0.105 0.082 0.265 0.363 0.48 0.844 0.238 0.48 0.399 0.879 0.481 1.199l0.039 0.481c-0.266 0.746-0.614 1.293-1.039 1.64-0.481 0.371-1.161 0.559-2.043 0.559-0.852 0-3.918-1.227-9.2-3.68-5.011-2.348-8.691-3.332-11.039-2.961-1.171 1.016-1.695 1.949-1.562 2.801l0.203 1.48c1.652 3.547 3.172 5.758 4.559 6.641 0.375 0.238 0.906 0.52 1.601 0.84 0.613 0.348 1.172 0.851 1.68 1.519l0.32 0.438c0.348 0.43 0.746 1.644 1.199 3.644 0.454 2.024 0.719 3.184 0.801 3.477 0.453 0.801 1.145 1.375 2.078 1.723 0.535 0.211 1.387 0.382 2.559 0.515zm-29.641-5 1.641 0.801 0.961 0.199h6.441l0.039-2.316c0-1.231-0.574-3.203-1.718-5.922-0.403-0.906-1.403-3.039-3-6.398-0.508-1.122-1.028-1.829-1.563-2.122-0.851-0.48-2.57-0.718-5.16-0.718-0.984 0-2.133 0.105-3.438 0.316-1.707 0.297-3.136 0.535-4.281 0.723-0.32 0.16-0.734 0.492-1.238 1-0.137 1.144-0.402 2.293-0.801 3.437-0.348 0.989-0.519 1.828-0.519 2.524 0 0.476 0.371 1.172 1.117 2.078 0.722 0.027 1.949-0.051 3.679-0.238l0.602-0.043c0.961 0 1.586 0.175 1.879 0.519 0.187 0.188 0.375 0.496 0.562 0.922 0.426 0.16 0.825 0.48 1.2 0.961 1.171 1.57 2.226 2.906 3.16 4l0.437 0.277zm84.883-1.679 4.399 1.281c2.535 0 4.691 0.597 6.48 1.801 1.789 1.199 2.68 2.636 2.68 4.32l0.32-0.121c0.188-0.16 0.281-0.492 0.281-1l4.239 0.078c1.332 0 3.082-0.211 5.242-0.641 2.531-0.48 4.343-1.05 5.437-1.718l1.602-1.282 0.64-0.64c0.106-0.293 0.465-0.825 1.079-1.598 0.558-0.719 0.933-1.16 1.121-1.32 0.132-0.266 0.933-1.84 2.398-4.719 1.414-2.906 2.149-4.695 2.199-5.359-0.371-2-2-3.204-4.879-3.602-0.507-0.051-3.171-0.078-8-0.078-1.171 0-1.773 0.293-1.8 0.879 0.48 1.254 1.121 2.226 1.921 2.918 0.559 0.508 0.84 1.16 0.84 1.961 0 0.828-0.347 1.426-1.043 1.801-0.531 0.265-1.172 0.398-1.918 0.398-2.531 0-3.867-1.707-4-5.117-0.05-1.867 0.133-4.403 0.563-7.602l-0.043-1.16c-0.348-0.051-0.785-0.078-1.32-0.078-2.211 0-3.973 0.266-5.282 0.797-1.144 0.613-2.144 1.027-3 1.242l-0.355 0.359c0.398 0 1.105 0.2 2.117 0.602 1.254 0.476 2.039 0.973 2.359 1.476-2.32 0.696-4.078 1.137-5.277 1.321-3.629 0.535-6.121 0.922-7.484 1.16 0.453 0.906 1.203 1.668 2.242 2.281 1.547 0.906 3.414 1.16 5.598 0.762l0.121 0.637c-0.321 0.961-1.239 1.574-2.758 1.839-1.789 0.348-2.856 0.696-3.203 1.043-0.879 0.879-1.504 1.625-1.879 2.239-0.106 0.133-0.52 0.359-1.238 0.679-0.243 0.11-1.215 0.364-2.922 0.762-0.852 0.188-1.278 0.586-1.278 1.199 0 0.321 0.039 0.508 0.118 0.563 0.214 0.133 0.332 0.211 0.359 0.238l1.121-0.16c0.453 0.078 0.801 0.199 1.039 0.359 0.297 0.215 0.684 0.614 1.164 1.2zm-27.04-18.961c-3.223-0.879-5.465-1.278-6.719-1.2-0.078 1.36 0.227 2.454 0.922 3.282 1.305 1.597 3.934 2.613 7.879 3.039l1.121 0.922 0.039-0.922c0-0.184-0.121-0.746-0.359-1.68s-0.399-1.492-0.481-1.68c-0.105-0.105-0.507-0.414-1.199-0.922-0.695-0.503-1.093-0.785-1.203-0.839zm-23.6 58.363c0.586 0.133 2.454 0.426 5.598 0.879 2.988 0.453 4.59 0.719 4.801 0.801l-4.801-2c-0.933-0.641-1.984-0.961-3.156-0.961-0.215 0-0.856 0.05-1.922 0.16-0.266 0.371-0.426 0.64-0.48 0.801l-0.04 0.32zm-20.402-51.281-0.039-1.758c-0.051-1.949-0.199-3.188-0.437-3.723-0.774-0.773-1.176-1.199-1.204-1.277-0.371-0.242-1.093-0.363-2.16-0.363-2.558 0-4.332 0.175-5.316 0.519-1.067 0.348-1.602 1.016-1.602 2 0 0.961 0.84 2.016 2.52 3.16 1.762 1.199 3.746 2 5.961 2.403h2.16l0.117-0.84v-0.121z" />
      <path id="path26" style="fill-rule:evenodd;fill:#d2c8ba" d="m123.32 84.678 0.719 0.801c0.641 0.106 1.387 0.332 2.238 0.68 0.801 0.32 1.414 0.625 1.844 0.922l0.317 0.039c0.8 0.078 1.882 0.347 3.242 0.8 0.8 0.239 2.027 0.707 3.679 1.399l5.918 2.558-0.078-0.16c-0.828-1.785-2.652-3.425-5.48-4.918-1.758-0.933-3.559-1.652-5.399-2.16-2.535-0.746-4.16-1.535-4.882-2.359-0.504-0.563-1.067-0.84-1.68-0.84-0.426 0-0.774 0.078-1.039 0.238-0.266 0.242-0.508 0.442-0.719 0.602 0.078 0.293 0.293 0.734 0.637 1.32 0.297 0.504 0.523 0.867 0.683 1.078zm31.36-2.801c-3.039 1.469-5.051 2.282-6.039 2.442-1.067 0.027-2.36 0.215-3.879 0.558-1.95 0.375-3.364 0.801-4.242 1.282 0.265 0.293 0.601 0.574 1 0.84 0.375 0.242 0.625 0.359 0.757 0.359 1.602 0 4.243-0.398 7.922-1.199 0.746-0.16 1.84-0.774 3.281-1.84 2.184-1.625 3.481-2.559 3.879-2.801 0.536-0.664 0.907-1.211 1.121-1.641l-1.082 0.563-2.718 1.437zm8.558-34.957 2.043 0.559-0.601-2.078c0-1.684-0.891-3.121-2.68-4.32-1.789-1.204-3.945-1.801-6.48-1.801-0.747-0.028-1.641-0.199-2.68-0.52-0.906-0.293-1.481-0.547-1.719-0.761-0.48-0.586-0.867-0.985-1.16-1.2-0.242-0.16-0.586-0.281-1.039-0.359l-1.121 0.16-1.36 0.199-0.839 0.082-0.243 0.758c0.133 0.426 0.243 0.879 0.321 1.36l0.039 0.601 0.16 0.238c10.027 2.243 15.043 4.227 15.043 5.961 0 0.321 0.383 0.602 1.156 0.84 0.402 0.133 0.789 0.227 1.16 0.281zm3.364 5.36c0.023 0.027 0.691 0.148 2 0.359 1.144 0.215 2.089 0.653 2.839 1.321 1.012 0.746 1.52 1.414 1.52 2-0.027 0.347 0.691 0.984 2.16 1.917 1.465 0.934 2.211 1.231 2.238 0.883 0.028-1.281-0.8-2.816-2.48-4.601-1.652-1.785-2.481-2.907-2.481-3.36 0-0.668 0.762-1.441 2.282-2.32 2.828-1.68 4.347-2.586 4.558-2.719l-1.117 0.078c-1.496 0.028-3.734 0.801-6.723 2.321-2.691 1.519-4.05 2.293-4.078 2.32-0.187 0-0.347 0.172-0.48 0.52-0.16 0.347-0.238 0.773-0.238 1.281z" />
    </g>
  </g>
</svg>